
<svg width="272px" height="449px" viewBox="0 0 272 449" version="1.1" xmlns="http://www.w3.org/2000/svg" xmlns:xlink="http://www.w3.org/1999/xlink">
    <g id="Page-1" stroke="none" stroke-width="1" fill="none" fill-rule="evenodd">
        <g id="Вариант-1-чистовой-Copy" transform="translate(-147.000000, -1381.000000)" fill="#FF6600">
            <g id="Услуги" transform="translate(-1.000000, 1203.000000)">
                <g id="Group-8">
                    <g id="Кот-оранджевый" transform="translate(111.000000, 178.000000)">
                        <path d="M71.3783042,396.776222 C72.9179422,401.767443 71.8747357,397.347445 71.6876619,401.593371 C71.6021508,403.535064 73.4816443,403.412909 72.152282,407.134584 C67.8155841,408.385225 60.3692584,405.974978 62.7994669,400.221883 C64.2061686,396.890379 68.9543705,392.355496 72.8570921,392.839029 C73.1057456,394.669764 72.5513826,395.278942 71.3783042,396.776222 Z M133.725249,280.203385 C136.417244,262.62577 143.094992,245.169001 156.686006,233.21898 C170.652628,220.938848 186.754839,213.586824 205.435662,212.189741 C223.002652,210.876423 246.72046,214.883273 262.498283,222.873852 C276.891438,230.162763 287.800381,245.776144 294.469081,260.081878 C306.679806,286.275829 297.587902,326.249662 283.469082,350.244375 C275.348882,364.043891 261.103985,376.407787 245.848859,381.356544 C227.903052,387.179151 210.821695,387.965746 199.044508,404.983481 C188.655053,419.995973 186.068123,436.622519 164.536102,441.1257 C141.635758,445.914928 133.628064,431.190229 116.936761,422.441994 C111.822145,419.761405 72.5856746,406.980726 82.8208886,396.978506 C88.0315218,391.887233 99.371522,393.336232 105.547584,395.571243 C115.829494,399.292337 120.486202,405.666971 128.349139,412.323581 C158.262417,437.64819 209.093086,391.651356 177.60296,366.330528 C161.963327,353.755332 148.41317,357.502747 138.387356,335.26533 C131.737627,320.516055 131.284388,296.141205 133.725249,280.203385 Z M128.268006,252.426501 C127.898236,253.07378 125.852389,271.35219 125.495753,273.770727 C124.276417,282.037464 122.488271,290.117769 121.409459,298.427843 C119.510412,313.058889 125.259211,334.846947 134.822593,346.129911 C145.79939,359.080736 172.66462,366.502418 176.367864,382.310376 C180.703687,400.81681 157.17412,416.494033 139.017746,408.522504 C123.701478,401.797836 113.461303,383.544584 95.2920871,380.253799 C85.7532196,378.526169 75.288468,380.424526 67.0607223,385.549682 C60.6612511,389.535446 52.922057,397.434117 57.2619652,405.526928 C64.0614125,418.205666 97.4104572,419.96747 111.651707,428.984883 C125.244764,437.592929 136.913968,452.792436 164.107087,448.130598 C190.789913,443.555724 190.883012,427.062241 204.248137,410.088133 C217.588018,393.146163 237.725741,392.705094 256.014468,384.613446 C289.762613,369.682391 311.767572,318.678776 308.718648,283.557284 C307.020245,263.995658 297.949792,243.855537 284.599113,229.410051 C270.270601,213.907482 251.452464,207.674636 230.927169,204.99521 C211.349062,202.439394 185.503108,204.432567 168.582704,215.372914 C163.515222,218.649739 130.500488,248.520283 128.268006,252.426501 L128.268006,252.426501 Z" id="Fill-2" transform="translate(182.500000, 326.500000) scale(-1, 1) translate(-182.500000, -326.500000) "></path>
                        <path d="M121.066522,66.9773355 C123.08525,66.2917516 126.726283,68.6155215 129.675222,69.2793746 C143.686236,72.4358725 147.787103,76.7651208 155.420781,73.6586178 C158.228988,72.5168302 159.731355,70.6427306 162.29954,69.3949879 C166.284716,67.4564062 181.248494,60.4095359 184.251764,59.9574511 C183.662767,66.2759862 179.802947,99.3993299 177.071916,102.697149 C175.072371,103.083615 166.677039,100.36997 163.856678,99.7166273 C156.634507,98.0400929 156.704214,99.4577047 150.473322,99.1803181 C140.699807,98.7447089 127.417351,104.518839 125.877787,103.374637 C125.418979,102.649142 121.619494,87.8911226 121.369953,86.1962661 C120.707441,81.7095055 121.520644,79.8422233 121.528552,75.754996 C121.533531,72.4270666 119.212543,70.1470423 121.066522,66.9773355 Z M237.157088,66.874647 C237.840834,64.257725 238.9541,63.9834631 240.973268,62.0880588 L245.395139,66.9483611 L244.228275,69.6868617 C241.866575,69.8136954 238.958787,68.3598656 237.157088,66.874647 Z M154.425255,20.0424669 C154.370485,15.8940241 141.174724,11.6602208 140.547945,9.53728275 C142.969247,7.3483003 160.042987,12.4581512 164.019377,13.5806225 C172.258307,15.9065229 180.555961,16.8582729 188.590602,19.3129954 C195.846894,21.529816 204.961558,25.39164 212.132619,26.4617019 C221.717661,27.8938009 229.044978,26.3425379 237.897654,31.3360653 C232.996472,36.3199347 223.203041,38.7323319 216.364407,40.5457843 C201.067323,44.602759 187.120306,52.6746673 172.10293,57.9279695 C165.559526,60.2183621 156.590574,65.7074359 150.156271,66.3102156 C147.034967,66.6033677 126.865698,60.7079432 124.376299,58.9701933 C119.457104,55.5364508 119.838151,55.606046 113.70069,54.7018764 C107.233144,53.7488481 107.714359,52.6143041 102.70803,49.7698484 C81.0804724,37.4838791 71.7420421,41.0393422 55.4872159,30.803875 C62.0543432,25.2470524 74.4563785,23.6152578 82.9987402,22.1811703 C92.389451,20.605762 102.020915,17.4786645 111.066751,14.5835037 C119.320179,11.9417263 137.418733,11.7444452 144.954,16.9851066 C145.960216,17.6856037 154.493791,25.2523076 154.425255,20.0424669 Z M185.823838,99.7383581 C186.106914,94.5796485 186.719635,89.0623106 187.4088,83.9327174 C188.057107,79.0982647 189.644997,58.0640353 193.267725,56.0376784 C199.377362,52.6187071 208.25713,48.3212738 215.01727,46.9391697 C219.792364,45.9632744 235.484699,39.6965807 238.493388,40.5497612 C239.207448,44.0738354 239.469729,47.8244492 238.884393,51.5969358 C237.694244,59.2738557 219.260627,70.502546 233.579612,73.5120418 C242.953042,75.4815862 246.758385,82.8360957 250.873017,73.7617323 C255.400182,63.781779 252.017037,64.3345638 247.106628,58.1066446 C237.253887,45.6128838 261.130529,29.6048489 234.346831,23.9075577 C226.265328,22.1884139 217.857109,22.4295826 210.10569,20.6070403 C203.302788,19.0066345 196.479092,16.5132795 189.684391,14.6532409 C175.425594,10.7515061 161.913954,7.26691652 147.676684,3.01464909 C120.624408,-5.06450277 133.676068,5.18502548 111.189178,9.43303196 C105.935506,10.4254029 98.7058664,13.6764935 92.6551001,15.1009228 C86.0535586,16.6546004 79.2032089,17.5089171 72.5713535,18.9526627 C65.8241003,20.4209796 59.8953218,22.051496 53.290412,23.7589932 C44.7452679,25.9681441 42.1371032,22.3007605 37,31.4813631 C43.6232152,37.7741905 42.1744464,38.9212332 52.128966,39.7038243 C56.6413398,40.059328 57.7491874,40.8449017 61.6239448,42.6968445 C65.7867572,44.6881197 66.6393532,44.6442321 71.1612458,45.3593584 C76.6594796,46.2301507 84.2219855,49.6667339 89.9141109,51.4857254 C95.3550851,53.2241854 100.130179,57.0852993 105.161696,59.7851675 C107.849234,61.2272086 112.334515,61.3074562 113.22709,64.1333058 C114.147344,67.0409654 112.935667,69.2878965 114.636319,73.2962966 C116.776303,78.3416654 114.203432,83.8815862 116.961408,91.7674338 C119.434698,98.8360348 116.009084,102.367353 120.606981,109.987034 C122.017967,112.325433 124.514835,114.538135 127.358481,114.889236 C132.159642,115.481931 132.305354,113.644333 134.402576,110.613959 C137.7866,109.789753 138.327417,108.54897 140.079325,108.188211 C151.262947,105.889723 162.188389,103.852571 172.951572,110.430029 C188.29171,119.803936 185.19618,111.192878 185.823838,99.7383581 L185.823838,99.7383581 Z" id="Fill-4"></path>
                        <path d="M91.8690991,120.409952 C100.327714,122.530112 99.1231711,127.737213 107.192222,128.518831 C127.151341,130.451242 117.461222,151.337147 134.669348,136.74358 C139.578898,132.579308 152.837174,132.71703 152.581109,134.085042 C152.310469,134.179923 135.056434,144.98903 138.463403,145.980106 C139.771858,146.359486 151.922071,136.230072 157.475793,137.273332 C165.474597,138.774609 178.07267,145.128764 182.925673,143.674065 C185.151125,143.00616 198.151733,130.34371 201.116234,127.726718 C205.827431,123.569779 205.982062,123.998756 210.960984,121.015466 C215.192113,118.480704 214.967381,115.800171 220.531742,115.060962 C223.209135,134.021069 211.383922,172.691275 203.075274,190.748 C201.255853,194.700802 200.622175,195.961138 196.836719,197.627019 C154.804521,182.062359 147.460381,191.042562 104.835312,195.441161 C103.976028,193.835947 103.038627,189.763393 102.149175,187.4125 C100.940843,184.215584 100.562355,181.054608 99.566367,178.452711 C98.6534505,176.06674 97.8304557,171.946746 96.722393,170.373015 C90.0530306,160.896412 90.1856542,131.673338 91.8690991,120.409952 Z M86.6728785,103 C85.3806003,106.302004 83.9631312,128.541689 84.0007322,133.079734 C84.0486807,138.767278 84.1202391,156.109519 85.8165092,160.630313 C86.5683828,162.632016 87.5292478,164.221273 88.0890359,166.381111 C88.6137006,168.406821 88.5549673,170.701073 89.3750473,172.57023 C90.1761811,174.39554 91.4543225,175.092772 92.0826085,177.302638 C92.6403562,179.264375 92.5615107,181.635251 93.0229241,183.680081 C93.3890235,185.297084 95.8437255,195.757863 96.0486362,196.081752 C99.8874327,202.165064 86.521163,211.329854 108.094063,202.036687 C111.146154,200.721579 117.18927,199.96253 120.70088,199.242872 C124.965529,198.368673 129.104988,196.962421 133.466263,196.609923 C138.669188,196.189428 143.337829,196.812049 148.397782,196.708973 C159.073251,196.490172 167.837628,196.906642 178.35118,199.21757 C189.72489,201.717973 197.001989,206.495665 206.617343,199.904595 C208.673446,198.495037 217.34863,169.839669 220.714791,162.506945 C225.671415,151.708477 225.256638,145.18138 227.438369,133.974922 C229.384584,123.977623 229.587017,114.946098 227.618795,104.951099 C222.488304,103.701688 222.341252,104.060368 218.309204,107.091817 C215.678448,109.070662 213.179878,110.311878 210.623887,112.505068 L188.076422,129.11385 C185.753032,131.486308 183.568095,134.219025 179.767337,132.961852 C173.761384,130.978119 179.293973,128.071453 158.58575,125.667081 C152.800885,124.996013 141.681637,125.801639 136.227165,127.911736 C123.938498,132.663264 129.325639,131.495652 119.307021,124.799207 L96.4465069,107.330601 C93.0699982,103.83826 91.4960042,103.594588 86.6728785,103 L86.6728785,103 Z" id="Fill-5"></path>
                    </g>
                </g>
            </g>
        </g>
    </g>
</svg>