
<svg width="218px" height="223px" viewBox="0 0 218 223" version="1.1" xmlns="http://www.w3.org/2000/svg" xmlns:xlink="http://www.w3.org/1999/xlink">
    <g id="Page-1" stroke="none" stroke-width="1" fill="none" fill-rule="evenodd">
        <g id="Вариант-1-чистовой-Copy" transform="translate(-856.000000, -3089.000000)" fill="#FF6600">
            <g id="Преподаватели" transform="translate(-3.000000, 2038.000000)">
                <path d="M899.171571,1070.94538 C909.030232,1073.3743 907.626317,1079.33972 917.030935,1080.23517 C940.293632,1082.449 928.999631,1106.37654 949.055999,1089.65769 C954.778164,1084.88697 970.230913,1085.04475 969.932464,1086.61199 C969.617029,1086.72069 949.507154,1099.10394 953.478035,1100.23934 C955.003062,1100.67397 969.164345,1089.0694 975.637303,1090.26459 C984.960048,1091.9845 999.643319,1099.26402 1005.29958,1097.59747 C1007.89338,1096.8323 1023.04581,1082.3258 1026.50099,1079.3277 C1031.99197,1074.56538 1032.1722,1075.05683 1037.97522,1071.63908 C1042.90667,1068.73518 1042.64474,1065.66427 1049.1301,1064.81741 C1052.25065,1086.5387 1038.46816,1130.84049 1028.78428,1151.52683 C1026.66372,1156.05529 1025.92516,1157.49917 1021.51314,1159.40765 C972.52389,1141.5763 963.964169,1151.86429 914.283915,1156.90347 C913.282405,1155.06448 912.189848,1150.39884 911.153176,1147.70558 C909.744844,1144.0431 909.303711,1140.42178 908.142869,1137.44097 C907.078849,1134.70753 906.119635,1129.98753 904.828168,1128.18462 C897.054912,1117.32793 897.209487,1083.84907 899.171571,1070.94538 Z M1036.12968,1273.02386 C981.201675,1272.99961 866.174985,1272.99849 869.602074,1272.99408 C868.421699,1257.87204 870.085691,1243.05743 875.885732,1230.86467 C883.635131,1214.57365 896.311925,1196.79351 913.037569,1188.49308 C931.372272,1179.39361 958.933677,1174.8307 979.347491,1176.32628 C1001.05564,1177.91724 1019.7673,1186.28955 1035.99729,1200.27386 C1051.7908,1213.88225 1059.55071,1233.76159 1062.67896,1253.77855 C1063.56863,1259.47136 1064.12743,1266.10943 1064.23694,1273.05801 C1066.64375,1273.04371 1055.75557,1273.03293 1038.05011,1273.02473 C1037.64425,1273.03087 1037.0423,1273.03801 1036.12775,1273.04679 C1036.1284,1273.03915 1036.12904,1273.03151 1036.12968,1273.02386 Z M1036.13015,1273.01824 C974.153231,1273.00035 863.509876,1273.00132 859.307389,1273.00505 C858.8958,1267.67036 858.892836,1262.49836 859.326947,1257.59789 C861.300585,1235.32159 871.840953,1212.38651 887.355181,1195.93634 C904.005704,1178.2824 925.873421,1171.18459 949.72495,1168.13332 C972.475793,1165.22282 1002.51022,1167.4926 1022.17267,1179.9512 C1028.06136,1183.68276 1066.42631,1217.69861 1069.02058,1222.14691 C1069.45027,1222.88402 1071.82766,1243.69902 1072.24209,1246.45319 C1073.58471,1255.37338 1075.52079,1264.10295 1076.78674,1273.04512 C1074.06104,1273.03372 1059.18983,1273.0252 1038.39339,1273.01891 C1039.5468,1272.99667 1038.18604,1272.98666 1041.74531,1272.94665 C1041.52715,1270.41836 1041.16901,1267.82158 1040.6716,1265.09827 C1040.44249,1263.9954 1036.06856,1249.36113 1034.92781,1255.49746 C1036.74388,1259.37905 1036.63425,1267.00271 1036.13015,1273.01824 Z M893.115286,1051 C898.736722,1051.68118 900.571239,1051.96034 904.506618,1055.96127 L931.150942,1075.97385 C942.827813,1083.6455 936.549008,1084.98316 950.871661,1079.53966 C957.228943,1077.12227 970.188617,1076.19932 976.930978,1076.96811 C1001.06677,1079.72264 994.618441,1083.0526 1001.61848,1085.32523 C1006.04833,1086.76549 1008.59491,1083.6348 1011.30286,1080.91684 L1037.58232,1061.8893 C1040.56138,1059.37671 1043.4735,1057.95474 1046.53969,1055.68771 C1051.23911,1052.21479 1051.41051,1051.80388 1057.39018,1053.23524 C1059.68418,1064.68582 1059.44824,1075.03262 1057.17989,1086.48583 C1054.63705,1099.3243 1055.12048,1106.80194 1049.34345,1119.17301 C1045.42013,1127.5736 1035.30905,1160.40208 1032.91263,1162.01692 C1021.70577,1169.56785 1013.22418,1164.09438 999.967927,1161.22984 C987.714201,1158.58237 977.499168,1158.10525 965.056726,1158.35591 C959.159262,1158.474 953.717881,1157.7607 947.653782,1158.24244 C942.570641,1158.64627 937.746031,1160.25731 932.775509,1161.25882 C928.682667,1162.08329 921.63931,1162.95288 918.082045,1164.45951 C892.938459,1175.10605 908.517077,1164.60658 904.042893,1157.63735 C903.804066,1157.26629 900.943069,1145.2821 900.516374,1143.42961 C899.978588,1141.08699 900.070484,1138.37084 899.42042,1136.12341 C898.688141,1133.59172 897.198446,1132.79295 896.26471,1130.70182 C895.308893,1128.56045 895.377348,1125.93209 894.765842,1123.61137 C894.113399,1121.13699 892.993494,1119.31629 892.117173,1117.02308 C890.140141,1111.84392 890.056738,1091.9761 890.000853,1085.46028 C889.957029,1080.26135 891.609113,1054.78288 893.115286,1051 Z" id="оранджевый-кот-0,5"></path>
            </g>
        </g>
    </g>
</svg>