
<svg width="184px" height="271px" viewBox="0 0 184 271" version="1.1" xmlns="http://www.w3.org/2000/svg" xmlns:xlink="http://www.w3.org/1999/xlink">
    <g id="Page-1" stroke="none" stroke-width="1" fill="none" fill-rule="evenodd">
        <g id="Вариант-1-чистовой-Copy" transform="translate(0.000000, -2492.000000)" fill="#3DACB8">
            <g id="Преподаватели" transform="translate(-3.000000, 2038.000000)">
                <path d="M0.996824719,712.27814 C5.05224743,709.952619 9.3126447,707.340738 13.802516,704.406584 C32.9887253,691.867772 49.9646428,675.030885 58.0561959,653.127312 C73.8985385,610.244315 53.345739,562.821305 18.2898543,534.8261 C10.5977194,531.387206 4.82861825,528.808035 0.982550805,527.088588 C0.99803423,530.559353 0.999778543,662.442479 0.994282149,702.091254 L0.946846953,512.040686 C41.2806721,533.065133 70.7992748,570.747638 74.7503611,617.035642 C77.0969542,644.526575 67.7479628,661.70861 51.8121108,683.115143 C36.4830697,703.707296 24.887332,715.061536 1,725 L0.996824719,712.27814 Z M186.165833,579.136228 C182.031489,586.416902 165.228368,597.427812 159.9198,602.906005 C145.715404,617.567794 123.45231,618.352242 114.846634,622.62953 C104.296108,627.873658 103.260484,621.698488 101.607231,619.849326 C96.9870938,614.676927 94.0130417,614.690568 93.6715008,606.092674 C92.9444868,587.904731 95.8702205,606.628439 83.9869006,561.117268 C82.4759731,555.333494 80.318553,550.733494 76.0435099,546.520986 C72.1552948,542.68936 58.9912992,525.88041 51.9660198,521.659627 C45.6318092,517.854179 44.4605527,514.538433 39.4610945,510.293163 C34.9399643,506.455241 15.3021772,499.477255 33.8725956,487.37878 C45.7630109,479.631605 57.6529464,469.566934 64.6108808,465.239772 C69.9101212,461.942111 73.4531736,461.928033 79.3517942,461.28386 C85.4633185,460.614998 89.0808646,458.685969 94.6978049,457.412529 C99.5246049,456.318242 103.813914,456.604587 109.025225,455.29123 C135.449894,448.629195 113.908765,483.529826 112.987341,487.348886 C111.616334,493.036683 116.048792,496.219996 119.57101,499.948191 C124.068329,504.707545 127.546074,510.180055 131.383605,515.476391 C138.967649,525.939698 142.013916,532.998434 144.006961,545.778729 C146.37915,560.986734 145.349289,561.792013 161.1493,565.746742 C165.962621,566.951061 170.09918,569.143407 174.838592,570.283851 C180.121063,571.553674 184.59682,573.496848 186.165833,579.136228 Z M109.664403,463.405835 C104.979296,463.450207 97.5430685,466.937519 92.3152044,467.41029 C86.6875196,467.920098 70.6491782,472.08807 66.5591018,475.683309 C57.6106432,483.551331 55.9589223,483.289508 48.8259342,488.868011 C45.8232594,491.215491 46.4396228,492.354231 41.8116277,495.51813 C42.9219308,506.581394 91.415514,529.121522 96.9273542,567.833536 C97.6310105,572.776168 104.396386,599.646179 106.360923,606.810921 C106.786584,608.362931 106.790131,610.849247 107.253806,611.929282 C108.724752,615.354402 114.070181,611.850819 116.934723,611.350049 C132.590514,608.615663 142.125608,604.837514 155.193423,594.396491 C158.06282,592.103334 156.994297,591.869174 158.776439,589.729321 C160.781164,587.32331 179.258759,578.360589 162.181833,576.081819 C158.798535,575.62899 155.850042,574.427608 152.6488,573.315209 C137.453026,568.036785 134.837655,571.96398 134.411386,552.786426 C134.31888,548.638182 132.596209,545.980338 131.996041,542.036561 C125.902249,501.996755 95.2235431,512.735629 105.423103,481.961077 C106.772492,477.894725 107.046155,476.461565 109.113761,472.486581 C111.1036,468.664041 112.261895,467.240871 109.664403,463.405835 Z" id="синий-кот-0,5"></path>
            </g>
        </g>
    </g>
</svg>