
<svg width="291px" height="149px" viewBox="0 0 291 149" version="1.1" xmlns="http://www.w3.org/2000/svg" xmlns:xlink="http://www.w3.org/1999/xlink">
    <g id="Page-1" stroke="none" stroke-width="1" fill="none" fill-rule="evenodd">
        <g id="Вариант-1-чистовой-Copy" transform="translate(-857.000000, -3342.000000)" fill="#FF6600">
            <g id="Галерея" transform="translate(0.000000, 3342.000000)">
                <g id="оранджевый-кот-ass" transform="translate(857.000000, 0.000000)">
                    <path d="M18.7355786,89.3156819 C20.5308086,95.0199348 19.3144216,89.9685082 19.0962921,94.8209956 C18.9965854,97.0400733 21.1880898,96.9004669 19.6380428,101.15381 C14.5814188,102.583114 5.89894411,99.8285459 8.73258643,93.2535809 C10.3728117,89.4461474 15.9092527,84.2634243 20.459857,84.8160331 C20.7497889,86.9083017 18.0051266,86.9947073 18.7355786,89.3156819 Z M280.905583,0.0511709852 C277.380571,13.426081 272.106441,26.0231473 266.035102,36.1364286 C256.566885,51.9073035 239.957222,66.0374703 222.169625,71.6931934 C201.244672,78.3476011 181.327675,79.2465669 167.595382,98.6954069 C155.481195,115.852541 152.464814,134.854308 127.358308,140.000799 C100.656325,145.474203 91.3192911,128.645976 71.8570992,118.647993 C65.893417,115.584463 20.143382,100.977972 32.0777224,89.5468635 C38.1533619,83.7282662 51.3758918,85.3842646 58.5772295,87.938564 C70.5660173,92.1912423 75.9957755,99.4765382 85.1640224,107.084092 C120.043141,136.026503 179.312103,83.4586928 142.594367,54.5206032 C124.358431,40.1489506 108.558842,44.4317107 96.8686632,19.0175205 C94.3777167,13.6022327 92.632472,7.05157756 91.5052537,0.0500165757 C85.8043543,2.66314748e-14 284.804354,2.66314748e-14 280.905583,0.0511709852 Z M78.5040932,0.0626249619 C81.0581151,11.9355007 86.1041605,23.7928433 92.7121214,31.4341843 C105.511153,46.2351268 136.836224,54.7170495 141.154236,72.783287 C146.209839,93.9334975 118.774178,111.850323 97.603702,102.740005 C79.7448133,95.0546702 67.8046878,74.1938107 46.6192385,70.4329128 C35.4968435,68.4584788 23.2948605,70.6280294 13.701244,76.4853508 C6.23940996,81.0405098 -2.78455151,90.0675623 2.27581575,99.3164894 C10.2040251,113.806475 49.0892748,115.819966 65.6946843,126.125581 C81.544297,135.963348 95.1506804,153.334212 126.858073,148.006398 C157.970458,142.777971 158.079013,123.928275 173.662854,104.529294 C189.217261,85.1670436 212.698004,84.6629646 234.022805,75.4153671 C261.354186,63.5633405 282.080036,31.8233979 291,0.090688144 C283.804354,-1.10234738e-13 84.8043543,-1.10234738e-13 78.5040932,0.0626249619 Z" id="Fill-2" transform="translate(145.902177, 74.506324) scale(-1, 1) translate(-145.902177, -74.506324) "></path>
                    <path d="M167.415734,0.0315890525 C159.978506,16.5427236 154.076906,18.6497328 146.472344,31.4713583 C142.62189,42.182674 163.428279,25.7208913 168.459894,18.9987117 C172.487272,13.1005294 175.095518,6.62639504 177.087875,0.010433098" id="Fill-18"></path>
                </g>
            </g>
        </g>
    </g>
</svg>