
<svg width="249px" height="249px" viewBox="0 0 249 249" version="1.1" xmlns="http://www.w3.org/2000/svg" xmlns:xlink="http://www.w3.org/1999/xlink">
    <g id="Page-1" stroke="none" stroke-width="1" fill="none" fill-rule="evenodd">
        <g id="Вариант-1-чистовой-Copy" transform="translate(-158.000000, -847.000000)">
            <g id="Направления" transform="translate(0.000000, 715.000000)">
                <g id="Компас" transform="translate(160.865945, 135.000000)">
                    <path d="M16.78838,131.137381 L8.24229573e-13,121.94786 L16.7122413,112.800015 C18.693709,88.6500952 28.9148606,65.050126 47.3756963,46.5739062 C65.7347176,28.1995858 89.1569083,17.9811045 113.147474,15.9184624 L121.846321,-9.16600129e-13 L130.505837,15.8464872 C154.803005,17.7325376 178.574106,27.9750106 197.157516,46.5739062 C215.740925,65.1728018 225.97487,88.9637128 227.85935,113.281128 L243.692643,121.94786 L227.787435,130.653956 C225.72651,154.664514 215.516537,178.106223 197.157516,196.480544 C178.69668,214.956764 155.116361,225.186433 130.98655,227.169552 L121.846321,243.89572 L112.664451,227.09335 C88.8426994,224.935798 65.611485,214.731529 47.3756963,196.480544 C29.1399077,178.229559 18.9441356,154.978985 16.78838,131.137381 Z M59.1823976,185.246832 C94.4954185,220.58928 151.749138,220.58928 187.062159,185.246832 C222.375179,149.904383 222.375179,92.6029525 187.062159,57.2605041 C151.749138,21.9180557 94.4954185,21.9180557 59.1823976,57.2605041 C23.8693767,92.6029525 23.8693767,149.904383 59.1823976,185.246832 Z" id="Star-2" stroke="#6EB352" stroke-width="2" fill="#DCEDD5"></path>
                    <path d="M68.7390295,76.5105137 L65.0830422,64.1492926 L77.5017609,67.7513623 C89.8133727,57.4189063 105.685796,51.1973498 123.010132,51.1973498 C140.48267,51.1973498 156.478348,57.5258064 168.83368,68.017431 L182.169714,64.1492926 L178.187909,77.6121331 C188.002159,89.7828254 193.878381,105.266936 193.878381,122.124655 C193.878381,138.982375 188.002159,154.466485 178.187909,166.637178 L182.169714,180.100018 L168.83368,176.23188 C156.478348,186.723504 140.48267,193.051961 123.010132,193.051961 C105.685796,193.051961 89.8133727,186.830404 77.5017609,176.497948 L65.0830422,180.100018 L68.7390295,167.738797 C58.381112,155.407418 52.1418837,139.495269 52.1418837,122.124655 C52.1418837,104.754042 58.381112,88.8418927 68.7390295,76.5105137 Z M75.7827416,168.049826 C101.730984,194.019691 143.801396,194.019691 169.749638,168.049826 C195.69788,142.079961 195.69788,99.9744895 169.749638,74.0046241 C143.801396,48.0347587 101.730984,48.0347587 75.7827416,74.0046241 C49.8344998,99.9744895 49.8344998,142.079961 75.7827416,168.049826 Z" id="Oval-2" fill="#3DACB8"></path>
                    <path d="M115.294406,132.945598 C112.214413,130.471392 110.242661,126.672044 110.242661,122.411785 C110.242661,117.853246 112.500181,113.822418 115.957339,111.378066 L123.73142,74.4204067 L131.505502,111.378066 C134.96266,113.822418 137.22018,117.853246 137.22018,122.411785 C137.22018,127.391933 134.525763,131.742242 130.516319,134.082172 L123.024902,169.696056 L115.294406,132.945598 Z" id="Oval-4" stroke="#FF6600" fill="#FF9148" transform="translate(123.731420, 122.058231) rotate(45.000000) translate(-123.731420, -122.058231) "></path>
                </g>
            </g>
        </g>
    </g>
</svg>