
<svg width="103px" height="141px" viewBox="0 0 103 141" version="1.1" xmlns="http://www.w3.org/2000/svg" xmlns:xlink="http://www.w3.org/1999/xlink">
    <g id="Page-1" stroke="none" stroke-width="1" fill="none" fill-rule="evenodd">
        <g id="Вариант-1-чистовой-Copy" transform="translate(-1097.000000, -885.000000)" fill="#6EB352">
            <g id="Направления" transform="translate(0.000000, 715.000000)">
                <path d="M1200.15272,201.152737 C1200.04367,201.162288 1199.87717,201.177049 1199.78959,201.185493 C1187.69179,202.352797 1172.86434,210.750134 1164.3791,218.550203 C1161.27247,221.405935 1155.47397,229.036444 1153.06762,232.696848 C1150.03676,237.305652 1147.51935,242.381174 1146.72458,247.886827 C1143.43801,270.655981 1168.88259,299.511532 1187.58806,305.032063 C1192.38534,306.44797 1196.3574,306.4776 1200.06615,306.163813 C1200.06347,306.798749 1200.07449,297.557478 1200.09125,284.32109 C1200.0754,299.129658 1200.06357,310.026193 1200.06643,310.797713 C1189.09867,311.054368 1176.46877,309.736546 1158.96277,290.568739 C1139.35243,269.096926 1134.70523,242.806429 1155.76989,220.548662 C1167.00998,208.671665 1183.24043,197.585836 1200.13793,195.735776 C1200.14566,196.151058 1200.15038,198.077807 1200.15272,201.152737 Z M1198.37237,217.739015 C1195.05385,218.369078 1187.14827,220.285614 1184.17644,222.432417 C1179.65173,223.190154 1190.33597,217.671826 1190.93949,217.413978 C1193.293,216.437167 1195.42015,215.717628 1197.88495,215.093547 C1198.66468,214.912354 1199.42585,214.750432 1200.17195,214.608576 C1200.17962,216.403235 1200.18034,215.86586 1200.1872,217.506281 C1199.42771,217.561737 1198.71431,217.638174 1198.37237,217.739015 Z M1129.92434,258.508281 C1128.33874,257.17867 1127.86959,257.623577 1126.3206,256.830634 C1125.2658,256.291464 1124.26227,255.221634 1123.0149,254.51549 C1118.78559,252.119216 1113.00822,249.912791 1109.72671,245.254337 C1109.09598,244.359118 1108.59157,243.157299 1107.93151,242.381627 C1106.85813,241.120496 1106.30949,241.378809 1105.75037,239.630049 C1105.01458,237.325041 1103.37837,235.748895 1103.48355,233.395638 C1103.6917,228.732761 1104.92898,231.541648 1102.38053,226.688858 C1100.6027,223.302055 1095.79273,218.437056 1097.28194,214.392745 C1101.92619,212.233167 1103.31879,211.267571 1108.59776,211.768371 C1113.62395,212.244884 1115.83348,212.201864 1118.97778,207.782926 C1123.05898,202.047273 1122.51684,203.113486 1127.88067,199.158826 C1133.41792,195.075844 1133.2139,196.638709 1138.45053,194.505005 C1145.2057,191.752594 1140.41562,177.540137 1144.17229,171.647355 C1146.97291,167.252825 1151.06643,172.818889 1153.21576,174.82284 C1156.41436,177.805854 1160.881,179.838523 1164.19307,182.98499 C1166.38868,185.070629 1171.93069,189.881905 1173.34182,191.920714 C1176.87824,197.029346 1171.99325,196.981522 1167.94972,198.164459 C1163.12156,199.577451 1166.62142,201.121022 1164.86853,203.341864 C1163.08776,205.599067 1155.23435,208.275768 1146.74898,219.681726 C1133.86827,236.996021 1136.7555,244.878778 1129.92434,258.508281 Z M1148.73745,178.805684 C1146.99018,180.009572 1146.86295,188.28254 1146.60403,190.738555 C1146.18596,194.707194 1147.88132,200.760873 1141.59081,200.068687 C1135.74785,199.426474 1135.07092,200.651305 1130.27527,203.432407 C1127.12438,205.259161 1121.67549,209.421935 1122.29757,213.45848 C1123.60913,214.56495 1125.44023,213.657628 1126.3376,215.073853 C1125.17869,217.473069 1106.20197,215.236406 1103.68008,217.132021 C1103.68058,217.416247 1104.87767,221.73321 1105.10112,222.096228 C1106.87225,224.96341 1107.84665,224.399416 1109.0027,225.838787 C1111.96357,229.525739 1106.42308,236.098106 1116.79016,245.322673 C1118.44198,246.792104 1120.43587,247.13705 1122.08684,248.277391 C1124.12757,249.687698 1124.98139,250.876167 1127.67246,251.360889 C1129.59768,248.865596 1129.79365,245.840228 1130.71387,242.845765 C1131.18635,241.309539 1131.91467,239.869761 1132.32596,238.359573 C1132.78644,236.666926 1132.67978,235.644963 1133.41658,233.867278 C1137.57234,223.841003 1142.40368,217.851458 1148.85472,209.602023 C1160.25177,195.027515 1155.10806,203.41283 1163.43737,195.188552 C1164.43835,194.199592 1165.83397,193.645922 1166.71128,192.720403 C1166.71018,192.7119 1165.32385,188.506496 1154.6343,181.98464 C1149.29921,178.532845 1151.73559,181.498371 1148.73745,178.805684 Z" id="Path-3"></path>
            </g>
        </g>
    </g>
</svg>