
<svg width="105px" height="74px" viewBox="0 0 105 74" version="1.1" xmlns="http://www.w3.org/2000/svg" xmlns:xlink="http://www.w3.org/1999/xlink">
    <g id="Page-1" stroke="none" stroke-width="1" fill="none" fill-rule="evenodd">
        <g id="Вариант-1-чистовой-Copy" transform="translate(-1024.000000, -743.000000)" fill="#FF6600">
            <g id="Направления" transform="translate(0.000000, 715.000000)">
                <path d="M1084.27576,94.7897022 C1081.65011,100.389342 1081.45109,105.316011 1075.71227,97.5467245 C1071.6858,92.0953224 1065.83877,90.9175151 1059.81052,89.8184462 C1058.86605,89.6466287 1058.3464,90.1581531 1056.49633,89.8899285 C1054.8409,90.9831681 1054.39728,91.8724441 1052.12832,90.6110897 C1050.78447,89.8639822 1049.98911,88.2560167 1049.75939,86.8034916 C1049.01074,82.0703945 1051.42824,80.993767 1051.62532,76.9632077 C1051.84582,72.466904 1054.24472,70.2148201 1054.19901,67.262618 C1054.16245,64.9170785 1055.21908,64.0374575 1055.34847,62.3990167 C1055.47511,60.807034 1053.25981,59.8653335 1052.21395,58.6042738 C1050.25596,56.2432968 1048.66006,53.3533879 1046.30418,51.3906878 C1043.83962,49.3372482 1040.7712,46.0992529 1038.2116,44.5587667 C1036.1063,43.2923482 1035.67326,43.142906 1034.00435,41.3107539 C1032.45061,39.6061522 1032.05809,38.9907766 1029.88491,37.9060371 C1025.09041,35.5138819 1026.04286,35.2317234 1024.01861,30.7547754 C1028.42854,27.1982494 1028.98547,29.555743 1033.68299,30.1691084 C1037.3139,30.6432302 1040.59287,31.0199234 1044.24629,31.6422175 C1047.83734,32.253598 1051.41805,33.2035376 1055.01621,33.7538726 C1058.31426,34.258104 1062.56772,34.086202 1065.38194,34.6461838 C1077.42749,37.0428121 1073.00408,29.2958337 1084.83138,38.7721648 C1091.05587,43.7595937 1097.0744,48.2174223 1103.3804,53.0339566 C1106.38522,55.3295432 1109.27657,57.9475362 1112.33791,60.1149879 C1115.82629,62.5841412 1120.05823,64.1537244 1123.73172,66.6375418 C1135.90644,74.8692582 1120.79439,78.0717968 1123.17303,86.2975915 C1124.35825,90.397802 1126.15306,90.8015262 1121.88515,94.8802299 C1118.00537,98.5891768 1117.59748,94.1479434 1113.3318,91.279267 C1106.81566,86.8966405 1118.25448,84.9890644 1120.39704,81.3908111 C1121.45015,79.6227053 1122.07715,77.6951535 1122.43362,75.7900305 C1121.10905,74.7587717 1112.03621,74.7370049 1109.46342,74.2649865 C1105.821,73.5970066 1100.53524,73.9602544 1096.80509,74.4412073 C1094.59347,74.7259236 1089.55536,84.9211857 1088.25644,87.207482 C1086.87759,89.6330982 1085.45846,92.2679035 1084.27576,94.7897022 Z M1083.84753,48.5595173 C1082.8262,51.1856145 1080.11182,45.6755072 1079.75293,45.1219247 C1077.0642,40.9788898 1068.01632,37.4383758 1063.37328,37.1033341 C1058.28451,36.7359987 1052.85728,36.3671969 1047.86423,35.268761 C1043.32204,34.2700585 1036.81879,32.5943493 1032.42449,34.0600657 C1038.44119,42.4610076 1043.80935,42.5560924 1052.08473,53.0655974 C1054.00021,55.4985844 1053.53086,55.9706995 1056.55678,57.7491238 C1059.42831,59.4366728 1059.25276,59.3251518 1061.00548,62.0360969 C1061.89245,63.4080311 1070.73666,70.419946 1072.34957,70.9006162 C1075.67413,71.8922434 1081.25012,70.9434801 1084.97087,71.1108444 C1093.50949,71.4965777 1102.08639,70.2537691 1110.52186,71.2956106 C1114.29293,71.7614899 1119.65598,72.5212262 1123.10504,71.0077951 C1119.71055,66.7237605 1115.74937,66.0281452 1111.26888,63.3826088 C1107.91652,61.4040316 1104.16237,57.634772 1100.99991,55.0640488 C1097.49824,52.2175189 1093.56119,50.0717194 1089.93175,47.2487029 C1088.18004,45.8862626 1080.71737,39.8907291 1079.0688,40.5014283 C1078.95067,41.6919496 1084.66069,46.4683938 1083.84753,48.5595173 Z M1115.8574,88.2662331 C1116.57787,89.3996837 1117.92646,90.7691052 1119.27937,91.2437821 L1120.47493,90.1736475 L1118.94606,86.7993646 C1117.43735,87.2648078 1116.75736,87.1456248 1115.8574,88.2662331 Z M1058.94659,64.3002831 C1057.37866,65.5500215 1058.05217,67.1767694 1057.36297,68.8755385 C1056.51564,70.9615406 1055.72948,71.753322 1055.13015,74.1768984 C1054.9034,75.0922514 1053.73071,83.3866472 1053.80715,83.8485671 C1054.32988,84.7395707 1062.06833,84.4355212 1066.7958,86.6043498 C1069.80976,87.9868726 1070.06794,87.2489367 1073.28177,89.5434902 C1074.5371,90.4388477 1078.11517,93.4967402 1079.18049,93.6975476 C1081.20715,92.557035 1089.94495,76.4077412 1091.53915,73.2978054 C1089.96555,72.9306268 1081.13573,73.5499108 1078.7714,73.746429 C1077.24806,73.8722822 1076.12081,74.5303026 1074.50103,74.5542397 C1070.09734,74.6207032 1068.9694,71.592849 1062.71476,67.1904364 C1061.39822,66.2641052 1060.08309,64.3521348 1058.94659,64.3002831 Z" id="Path-5"></path>
            </g>
        </g>
    </g>
</svg>