
<svg width="206px" height="100px" viewBox="0 0 106 50" version="1.1" xmlns="http://www.w3.org/2000/svg" xmlns:xlink="http://www.w3.org/1999/xlink">
    <g id="Page-1" stroke="none" stroke-width="1" fill="none" fill-rule="evenodd">
        <g id="Вариант-1-чистовой-Copy" transform="translate(-19.000000, -10.000000)">
            <g id="Навигационная-панель">
                <g id="лого-готовый" transform="translate(20.000000, 10.000000)">
                    <path d="M83.5977528,19.8256777 C85.2448763,19.5664518 87.7002069,19.7666607 89.2441281,20.6395371 C90.4262591,21.3079843 91.9313857,22.8288649 92.5292038,24.0847134 C93.2744906,25.6504315 93.3959325,28.3068686 93.2315177,30.0259287 C92.6556648,36.0479614 88.0911287,34.8489525 86.4935106,37.3622221 C84.5886529,40.3588101 89.0699984,43.31255 92.2758161,42.4167576 C93.172957,42.166147 93.6101116,41.6361902 94.4316037,41.2390922 C96.444851,40.2660038 96.8657323,42.530531 95.1317185,43.7876429 C92.8925851,45.6603945 90.0049639,45.8554154 87.5588049,44.1936922 C85.722559,43.2301331 84.5929735,41.8324745 84.2657867,39.4651682 C84.02549,37.7266732 83.9652477,36.2604817 82.6306934,34.9518123 C81.6239986,33.9646383 80.4702877,33.9384966 79.3891599,32.5749364 C77.5940112,30.3109065 76.8773255,24.566661 79.1113493,22.0012022 C79.651551,21.3808718 80.3633986,20.9592719 81.0990483,20.6391607 C81.683219,20.384854 82.9947086,19.9205807 83.5977528,19.8256777 Z M92.6033004,22.6081862 C92.3622535,22.2638957 91.2156573,21.097144 90.8746032,20.7941425 C88.6398034,18.8087062 85.1453219,18.7132253 82.4046651,19.3502756 C78.0817709,20.3550566 76.5137889,24.028062 77.1281649,28.3594073 C78.1294784,35.4187603 81.9920757,33.6825099 83.0543689,37.1613949 C83.6404411,39.0807445 83.6214125,42.9229114 86.2716347,44.2286374 C89.2990279,46.0041205 91.708669,46.7371356 94.5453876,45.0438005 C95.7727941,44.3110408 97.6888414,42.5202759 96.7493095,40.8727728 C95.739135,39.1011337 93.1699042,41.1240285 92.0372917,41.6241879 C88.5701308,42.9158552 83.9275914,38.5846979 88.8543835,36.2351062 C90.5942701,35.278442 92.1043253,35.3234675 93.2701183,33.4297623 C94.210491,31.9020001 94.0556357,30.1470809 93.9906201,28.4163276 C93.9510622,27.3607284 93.8940797,26.2412601 93.6557623,25.2128239 C93.5045809,24.5604918 92.9748313,23.1388285 92.6033004,22.6081862 L92.6033004,22.6081862 Z" id="Fill-1" fill="#6EB352"></path>
                    <path d="M41.3980277,36.3105179 C41.5379947,36.7587092 41.4431578,36.3618114 41.4261511,36.7430782 C41.4183773,36.9174343 41.5892404,36.9064653 41.4683893,37.2406565 C41.074144,37.352959 40.3972053,37.1365286 40.6181334,36.6199242 C40.7460153,36.3207687 41.17767,35.9135548 41.5324629,35.956974 C41.5550678,36.1213666 41.5046711,36.1760683 41.3980277,36.3105179 Z M47.0659318,25.8427529 C47.3106586,24.2643548 47.9177265,22.6968083 49.1532733,21.6237452 C50.4229662,20.5210394 51.8868035,19.8608576 53.5850602,19.7354053 C55.1820593,19.6174747 57.3382236,19.9772735 58.7725712,20.6947949 C60.0810399,21.3493093 61.0727619,22.7513272 61.6790073,24.0359238 C62.7890733,26.3880336 61.9625365,29.9775207 60.6790075,32.132148 C59.9408075,33.3712881 58.6458168,34.4815155 57.2589872,34.9258938 C55.6275502,35.4487401 54.0746996,35.5193731 53.0040462,37.0474963 C52.0595503,38.3955568 51.8243748,39.8885527 49.8669184,40.29292 C47.7850689,40.7229731 47.0570968,39.4007552 45.5397055,38.6151995 C45.0747405,38.3744935 41.5077886,37.2268407 42.4382626,36.3286821 C42.9119565,35.8715066 43.9428656,36.0016208 44.5043259,36.2023157 C45.4390449,36.5364548 45.862382,37.1088709 46.5771945,37.7066073 C49.2965834,39.9806538 53.9175533,35.8503259 51.0548146,33.5766188 C49.6330297,32.4474175 48.4011973,32.7839201 47.4897597,30.7870909 C46.8852388,29.4626661 46.8440353,27.2739042 47.0659318,25.8427529 Z M46.5698187,23.3485021 C46.5362032,23.4066252 46.3502172,25.0479518 46.3177957,25.2651265 C46.206947,26.0074458 46.0443883,26.7330242 45.9463145,27.4792349 C45.7736738,28.7930431 46.2962919,30.7495218 47.1656903,31.7626859 C48.1635809,32.9256171 50.6058745,33.5920539 50.9425331,35.011544 C51.3366988,36.6733462 49.1976473,38.0810968 47.5470678,37.3652861 C46.1546799,36.7614384 45.2237548,35.1223708 43.5720079,34.8268717 C42.7048381,34.6717376 41.7534971,34.8422023 41.0055202,35.3024204 C40.4237501,35.6603258 39.720187,36.3695942 40.1147241,37.0962956 C40.7328557,38.2347945 43.764587,38.3929973 45.0592461,39.2027242 C46.2949786,39.9756916 47.3558153,41.3405453 49.827917,40.9219313 C52.2536284,40.5111263 52.262092,39.0300787 53.4771034,37.5058731 C54.6898198,35.9845534 56.5205219,35.9449472 58.1831334,35.2183503 C61.2511466,33.8776025 63.2515974,29.297686 62.9744225,26.1439194 C62.8200223,24.3873652 61.9954356,22.5788646 60.7817376,21.2817189 C59.4791456,19.8896515 57.7684058,19.3299673 55.9024699,19.0893658 C54.122642,18.859864 51.7730098,19.0388428 50.2347913,20.0212412 C49.7741111,20.3154868 46.7727716,22.9977397 46.5698187,23.3485021 L46.5698187,23.3485021 Z" id="Fill-2" fill="#FF6600"></path>
                    <path d="M25.034109,49.3171045 C25.0877708,49.2407135 25.0455069,49.2784379 25.1296941,49.2057768 C25.2846663,49.0719926 25.2166326,49.1668521 25.3011868,49.1451958 C25.3096631,49.1430017 25.327153,49.1421241 25.3356163,49.1390912 C25.3443809,49.1359421 25.3600497,49.1289858 25.3686309,49.1247397 C25.4946367,49.0629584 25.3703341,49.0516527 25.5581375,49.0093982 L25.5095981,49.4686732 L25.1109728,49.5361719 L25.034109,49.3171045 Z M21.1732455,20.7216573 C24.3322862,20.5335386 27.6480547,22.0576278 28.8416643,25.0696047 C29.4513474,26.6080325 29.3561552,28.3010361 28.9422279,29.8724002 C27.6326086,34.8436326 25.7414079,34.7201217 24.28376,37.051588 C23.4631108,38.3641598 23.0079938,40.1927416 23.1264927,41.7289753 C23.2965835,43.9334976 23.9716539,44.2697392 24.8276628,46.0571635 C25.1094923,46.6457313 25.4230002,47.5894609 25.2679232,48.2437206 C24.8866305,49.8525122 22.3498892,46.4327814 21.7596088,44.6087684 C21.2475546,43.0264729 22.0647582,41.3085863 22.0764181,39.6839977 C22.1039041,35.8668507 18.84485,35.6066645 16.2420795,34.1509517 C14.6882699,33.2818578 14.5999951,31.9488041 14.3327601,30.3284873 C14.1009896,28.9233404 13.6676465,27.0553177 13.9974521,25.6662904 C14.3483896,24.18825 15.347226,23.0160574 16.6178304,22.2020724 C17.7451094,21.4799011 19.8420095,20.8009005 21.1732455,20.7216573 Z M13.0001092,28.1628252 C12.994384,28.8818474 13.2150186,30.2808253 13.3819521,30.9999637 C13.5695197,31.8082829 13.8838922,32.5886993 14.3262227,33.2950994 C15.2865027,34.8287003 16.6232804,35.2192376 18.2093972,35.839735 C23.4276332,37.8810603 20.3764402,41.4259927 20.8901582,44.5207103 C21.1194788,45.9021618 22.0166643,47.2514255 22.8284702,48.3939084 C23.8892091,49.8868294 25.6433335,50.7159274 26.2054337,49.180468 C26.8251391,47.4877483 25.3494379,45.8327659 24.7253436,44.4175393 C24.059444,42.9075694 23.7660331,40.9702928 24.114298,39.3533574 C24.5263257,37.4402926 25.4144977,36.7985002 26.7213002,35.5091722 C27.6439672,34.5988822 28.6612891,32.7933119 29.2186074,31.6136596 C30.001709,29.9562508 30.0981588,28.759214 29.9297712,26.9464422 C29.7547544,25.0619514 29.4338444,23.7127005 28.0132593,22.3751426 C25.3880598,19.9033746 21.6376774,19.4394922 18.2869815,20.6190412 C14.8572471,21.8264158 13.0285908,24.5765546 13.0001092,28.1628252 L13.0001092,28.1628252 Z" id="Fill-3" fill="#3DACB8"></path>
                    <path d="M50.7839372,6.40652774 C50.9708565,6.34095015 51.3079892,6.5632238 51.5810391,6.62672279 C52.8783552,6.92864868 53.2580651,7.34275068 53.9648871,7.04560692 C54.2249063,6.93639246 54.3640143,6.75713075 54.6018093,6.63778145 C54.9708071,6.45235189 56.356342,5.77830344 56.6344226,5.73506054 C56.5798858,6.33944215 56.2224951,9.507762 55.9696218,9.82320553 C55.7844788,9.86017189 55.0071333,9.60060584 54.7459887,9.53811218 C54.0772692,9.37774801 54.0837235,9.51334567 53.5067891,9.48681303 C52.601834,9.44514607 51.371977,9.99745416 51.2294248,9.88800874 C51.1869425,9.81861361 50.8351383,8.40697694 50.8120327,8.24486024 C50.750689,7.81569183 50.8259856,7.63708223 50.8267178,7.24613005 C50.8271788,6.92780637 50.6122725,6.70971709 50.7839372,6.40652774 Z M61.5330637,6.39670537 C61.5963735,6.14639109 61.6994537,6.12015734 61.8864137,5.9388578 L62.2958462,6.40375628 L62.1878032,6.66569981 C61.9691273,6.67783173 61.6998876,6.53876976 61.5330637,6.39670537 Z M53.8727088,1.91710553 C53.8676375,1.52029796 52.6458078,1.11532546 52.5877727,0.912261828 C52.8119673,0.702880899 54.3928692,1.19164924 54.7610534,1.29901607 C55.5239173,1.52149349 56.2922186,1.61253045 57.0361668,1.84733 C57.7080457,2.0593737 58.5519961,2.42876557 59.2159833,2.53111932 C60.1034871,2.6681027 60.7819424,2.51972102 61.6016347,2.99736277 C61.1478215,3.47408071 60.2410223,3.70483175 59.6078154,3.87829241 C58.1914188,4.26635086 56.9000283,5.03844644 55.5095305,5.54093622 C54.9036599,5.76001725 54.0732013,6.28505909 53.4774325,6.34271628 C53.1884229,6.37075691 51.3208979,5.80684674 51.090398,5.64062719 C50.634917,5.31218225 50.6701992,5.31883919 50.1019157,5.23235339 C49.5030689,5.14119417 49.5476258,5.03267257 49.0840768,4.7605942 C47.0815252,3.58541452 46.2168557,3.92550229 44.7117793,2.94645761 C45.3198466,2.41493545 46.4681832,2.25885074 47.2591426,2.12167716 C48.1286529,1.97098593 49.0204551,1.67187226 49.8580325,1.39494383 C50.6222388,1.14225208 52.2980308,1.12338171 52.9957408,1.62466237 C53.0889089,1.69166644 53.8790547,2.41543812 53.8727088,1.91710553 Z M56.779985,9.54019077 C56.8061958,9.04674899 56.8629292,8.51900362 56.9267407,8.02834688 C56.9867691,7.56592097 57.133796,5.5539512 57.4692338,5.36012576 C58.0349409,5.03309372 58.8571416,4.62203488 59.4830806,4.48983362 C59.9252189,4.39648712 61.3782129,3.79706424 61.6567952,3.87867281 C61.7229119,4.21575817 61.7471971,4.57451253 61.6929994,4.93535907 C61.5828004,5.66967315 59.8759839,6.74372179 61.2018159,7.0315866 C62.0697261,7.21997781 62.4220727,7.92345263 62.8030572,7.05547005 C63.2222391,6.10086582 62.9089849,6.15374089 62.4543175,5.55802687 C61.5420266,4.3629715 63.7528268,2.83176816 61.2728547,2.28680986 C60.5245674,2.12237003 59.7460286,2.14543834 59.0283047,1.9711082 C58.3984063,1.81802591 57.7665826,1.57953108 57.1374436,1.40161435 C55.8171846,1.02840494 54.5661068,0.695096362 53.2478411,0.28835774 C50.7430007,-0.4844307 51.9514878,0.495958959 49.8693683,0.902290014 C49.3829172,0.997212448 48.7135061,1.30818633 48.15325,1.44443609 C47.5419962,1.59304873 46.9077045,1.67476598 46.2936438,1.81286339 C45.6688982,1.95331109 45.1199372,2.10927353 44.5083715,2.27259935 C43.7171544,2.48390943 43.4756577,2.13311622 43,3.01126082 C43.6132607,3.61318344 43.4791154,3.72290057 44.4008302,3.7977571 C44.8186426,3.83176181 44.9212211,3.90690364 45.2799949,4.08404599 C45.6654405,4.2745158 45.7443846,4.27031785 46.1630783,4.33872124 C46.672174,4.42201442 47.3724061,4.75073107 47.8994547,4.92472156 C48.4032486,5.09100904 48.845387,5.46033298 49.3112682,5.71858124 C49.5601142,5.85651561 49.9754181,5.86419146 50.0580639,6.13449012 C50.1432725,6.41261408 50.0310803,6.62753792 50.1885481,7.01095011 C50.3866947,7.4935506 50.1484659,8.02345607 50.4038341,8.77775454 C50.6328424,9.45388159 50.3156559,9.79165982 50.7413871,10.5204989 C50.872034,10.7441719 51.1032254,10.9558216 51.366526,10.9894051 C51.811078,11.0460978 51.8245698,10.8703276 52.018757,10.5804657 C52.3320926,10.5016285 52.3821682,10.3829449 52.5443819,10.3484376 C53.5799025,10.1285822 54.5915175,9.93372421 55.5881085,10.5628723 C57.0084916,11.4595069 56.7218685,10.6358405 56.779985,9.54019077 L56.779985,9.54019077 Z" id="Fill-4" fill="#FF6600"></path>
                    <path d="M48.7055054,10.521258 C49.463864,10.7065147 49.3558705,11.161504 50.0793027,11.2298008 C51.8687409,11.3986522 50.9999716,13.2236342 52.5427692,11.9484681 C52.9829357,11.5845998 54.1716087,11.5966337 54.1486511,11.7161687 C54.1243869,11.7244593 52.5774734,12.6689444 52.8829257,12.7555432 C53.0002355,12.7886929 54.089565,11.9035985 54.5874849,11.9947572 C55.3046191,12.1259367 56.4341015,12.6811541 56.8691982,12.5540445 C57.0687216,12.4956839 58.2342933,11.3892562 58.5000762,11.160587 C58.9224594,10.7973593 58.9363228,10.8348427 59.3827089,10.5741669 C59.7620515,10.3526829 59.7419032,10.1184616 60.2407768,10.0538704 C60.480819,11.7105788 59.4206275,15.0895289 58.6757142,16.667301 C58.5125937,17.0126914 58.4557812,17.1228179 58.1163955,17.2683803 C54.3479915,15.9083615 53.6895514,16.6930394 49.8679935,17.077383 C49.7909542,16.9371215 49.7069114,16.5812674 49.6271674,16.3758495 C49.5188342,16.0965073 49.4849008,15.8203055 49.3956053,15.5929553 C49.3137576,15.3844724 49.2399719,15.024473 49.1406283,14.8869625 C48.5426855,14.0589098 48.5545759,11.5054373 48.7055054,10.521258 Z M48.2396374,9 C48.123778,9.28852462 47.9966945,11.2317981 48.0000656,11.6283263 C48.0043645,12.1252961 48.0107801,13.6406376 48.1628594,14.0356585 C48.2302688,14.2105645 48.3164153,14.3494316 48.3666032,14.5381553 C48.4136421,14.7151591 48.4083764,14.9156278 48.4819008,15.0789521 C48.5537266,15.2384452 48.6683186,15.2993684 48.7246477,15.4924635 C48.7746526,15.6638774 48.7675837,15.8710413 48.8089518,16.0497158 C48.8417745,16.1910073 49.0618512,17.105056 49.0802226,17.133357 C49.4243905,17.6649085 48.2260353,18.4657154 50.1601573,17.6536911 C50.4337931,17.5387787 50.9755898,17.4724541 51.2904237,17.4095713 C51.6727716,17.333185 52.0438955,17.2103086 52.4349063,17.1795079 C52.9013754,17.1427655 53.3199433,17.1971693 53.7735943,17.1881627 C54.7307053,17.1690441 55.516477,17.2054347 56.4590713,17.4073605 C57.4787832,17.6258423 58.1312128,18.0433105 58.993279,17.4673918 C59.1776193,17.3442265 59.9553944,14.8403594 60.2571882,14.199636 C60.7015751,13.2560805 60.6643883,12.6857516 60.8599917,11.7065466 C61.0344799,10.8329962 61.0526291,10.0438338 60.8761679,9.1704844 C60.4161927,9.06131258 60.4030088,9.09265347 60.0415148,9.35753739 C59.8056539,9.53044616 59.5816442,9.63890197 59.3524864,9.8305399 L57.3309896,11.2817927 C57.1226857,11.4890948 56.9267948,11.727876 56.5860371,11.6180259 C56.0475724,11.44469 56.5435976,11.1907095 54.6869983,10.9806187 C54.1683552,10.9219817 53.1714571,10.9923763 52.6824355,11.1767537 C51.580693,11.5919357 52.0636779,11.4899113 51.1654571,10.9047851 L49.1158937,9.37840201 C48.8131723,9.07324599 48.6720556,9.05195428 48.2396374,9 L48.2396374,9 Z" id="Fill-5" fill="#FF6600"></path>
                    <path d="M85.1092266,14.2391927 C85.2510276,14.7852341 85.1987042,14.2514766 85.559455,15.0679821 C86.3141733,16.6582978 86.1401753,17.2536207 86.1396202,17.254692 C85.9594643,17.2933454 85.7472147,17.2484466 85.5470874,17.2847869 C83.8822042,17.5865998 85.1779195,17.0172933 82.6310793,17.8148921 C81.1895093,18.2663392 80.1251501,18.5825908 78.8151695,19.4191108 C78.5829097,19.5674302 78.5130033,19.6941159 78.3207767,19.8541713 C78.1492188,19.9969393 77.9453218,20.1067879 77.7643138,20.2477906 C77.4115801,20.5226983 77.1432375,20.8577592 76.7103211,20.9963513 C76.4266805,20.7300021 76.4204193,20.5256688 76.2897078,20.2029283 C76.1839122,19.9418993 75.972605,19.7461975 75.893339,19.4469899 C75.3960287,17.5688618 76.5926356,17.240509 76.5357681,16.5822328 C76.5135504,16.3252335 76.3510034,16.3144349 76.3705359,15.8440324 C76.3731049,15.7845366 76.5788351,15.1910763 76.6017758,15.1581205 C77.057749,15.1355859 79.1535217,16.8769846 79.486723,16.6896587 C79.4936685,16.4555471 79.200552,16.4175876 79.132737,16.1869944 C79.3847616,15.6709261 80.3753802,15.6144739 80.901247,15.6490489 C81.7016788,15.701581 81.8820154,15.6126112 82.5310672,16.1434104 C83.22977,16.7149569 83.5162637,15.881444 83.8875876,15.4544915 C84.1174074,15.190285 84.8021676,14.2421268 85.1092266,14.2391927 Z M76.4020874,22 C78.3246497,20.9551779 78.6161653,19.8167354 81.5627309,18.8177373 C83.5038187,18.1596437 84.6626646,18.4631245 85.0589818,18.3408215 C85.4490119,18.2205517 85.1540235,17.7683985 85.8476399,17.9819112 C86.4285022,18.1607759 87.0107202,18.5479063 86.9998501,17.6800253 C86.9955383,17.3336788 86.7199791,16.3435679 86.6253376,15.9305185 C86.4825942,15.3074017 86.1111929,14.7230844 85.9688368,14.1277614 C85.8731367,13.7277872 85.8324451,12.7634128 85.1408039,13.0535749 C84.2132108,13.4425679 83.6377576,15.462697 82.6045497,15.253774 C81.8036015,15.0918193 81.9545554,14.9267603 80.9597928,14.9670694 C79.9962202,15.0060636 80.1475485,14.9249341 79.1937357,15.2703797 C78.4588855,15.5365219 78.1903106,15.3689062 77.6258436,14.9210992 C77.0330139,14.4507333 76.7877927,14.4537768 76.0558214,14.3410916 C75.5498615,14.6931356 75.7332449,15.6322849 75.6724657,16.1633884 C75.5855054,16.9244643 75.6643712,16.5025155 75.262051,17.0262658 C75.0589932,17.2905818 75.1277507,17.6009289 75.0294944,17.9253494 C74.9550566,18.1715502 75.0417845,18.1844914 75.0685077,18.4143908 C75.0849289,18.555783 75.0481877,18.7343677 75.0514152,18.8873134 C75.0681333,19.6831469 75.5827298,20.3899741 75.8962308,20.9978609 C75.9887422,21.1770787 76.0225658,21.3793667 76.1054853,21.5242043 C76.2271599,21.7370353 76.3194519,21.7221583 76.4020874,22 L76.4020874,22 Z" id="Fill-6" fill="#6EB352"></path>
                    <path d="M22.0525795,11.9229313 C22.3847039,12.0052962 22.3914628,12.1410497 22.4711646,12.4500987 C22.5541322,12.7713941 22.6099435,12.8638505 22.7368508,13.1545769 C23.6979972,15.3541907 24.8512311,13.2424426 27.164672,15.1445042 C27.3925349,15.3318529 27.6184571,15.3927767 27.8285594,15.6165431 C28.7997974,16.6510965 28.7492593,16.3052818 29.8442594,15.8426651 C30.0749597,15.7452299 30.2961841,15.6652206 30.5042788,15.5224539 C31.5542818,14.8014733 30.9829983,16.2106973 30.991872,16.4425075 C30.9998087,16.6486339 31.0700346,16.6085623 31.0258674,16.8770178 C30.8245985,18.099482 30.4879369,18.7800698 29.7637143,19.7065745 C29.631226,19.8761225 29.5109706,20.3339343 29.2609437,20.2182969 C29.1821119,20.1818256 29.0590324,20.0451352 28.9589601,19.9807985 C28.4970108,19.6837682 26.7976153,18.5399615 26.5147039,18.3027576 C24.2988326,16.4449434 20.5229201,17.6077553 19.9151786,17.0537798 C20.0128418,16.6502266 19.9227272,16.6180917 19.9715254,16.3400399 C20.0873506,15.6794076 20.1909563,15.6119524 20.2932771,14.735303 C20.3400944,14.3346675 21.0144615,13.3102859 21.2981759,13.0032846 C21.5617742,12.7181393 21.7976006,12.1575923 22.0525795,11.9229313 Z M31.971756,14.5018198 C31.6069077,14.269153 31.265187,14.3840276 30.9124646,14.5759536 C30.5959459,14.7480847 30.2605291,14.8324304 29.9367965,15.0047087 C28.8740519,15.5701409 28.8907819,15.4747668 28.0089224,14.7551782 C27.2678627,14.1504373 26.751775,13.9128586 25.8183335,13.7127818 C25.3459178,13.6114384 24.8845439,13.4825643 24.4024516,13.4434831 C24.0248483,13.4128338 23.6242111,13.4572953 23.4183516,13.0762406 C23.280175,12.8203393 22.7376538,9.8314465 21.6164345,11.5079214 C21.3952904,11.8385187 21.1456918,12.0353566 20.9348266,12.3348361 C20.6894441,12.683341 20.5862131,12.9688343 20.2838013,13.3085728 C19.9918557,13.6363995 19.7980685,13.8127867 19.6701708,14.2569736 C19.5021077,14.8400459 19.3468932,15.9834109 19.0771116,16.9992267 C18.6557158,18.5856678 20.078544,17.9964389 20.5164021,17.9836171 C21.0006492,17.9695104 21.22882,18.0939812 21.7645956,17.989506 C22.3588326,17.8736411 23.9121951,18.1464597 24.3150004,18.1646619 C24.7578642,18.1846575 25.1036403,18.3309442 25.4724369,18.5744386 C28.3740919,20.4907274 27.288086,19.6050438 28.2269213,20.5702147 C28.6706149,21.026581 28.8331905,20.8784206 29.342439,20.9341514 C29.5245821,20.9539998 29.8866332,21.2425982 30.2065781,20.4309814 C30.4675531,19.7689839 31.6508341,18.6223264 31.7058825,17.1111836 C31.7265207,16.5465009 32.1046593,15.1075243 31.971756,14.5018198 L31.971756,14.5018198 Z" id="Fill-7" fill="#3DACB8"></path>
                    <path d="M8.10097058,22.3923449 C7.89808451,21.8793155 7.87890376,20.726565 6.90924543,20.0899689 C6.62578238,19.9038771 6.49617238,20.0412171 6.18981453,20.1889824 C5.65425431,20.4472369 5.36216756,20.7506455 5.07603345,21.2926266 C4.59246986,22.208774 4.09286719,23.5831199 3.67967967,24.5800302 C3.21500429,25.701111 2.85305024,26.8518395 2.39165645,27.9645434 C1.94734472,29.0360715 1.44016133,30.276176 1.11841309,31.3884204 C0.933563026,32.02759 0.78882974,32.4898456 0.510136442,33.097188 C0.25057302,33.6629082 -0.0261106237,34.3223637 0.0019736628,34.9656823 C0.0424592987,35.8937387 0.886539654,35.4930104 1.26108584,33.2307203 C1.4631706,32.0099038 1.89139237,30.8386269 2.34687168,29.6987963 C2.79910755,28.5669226 3.1873143,27.4348388 3.62634751,26.3076262 C4.0588557,25.19701 4.54567543,24.1280422 4.95493268,23.0078279 C5.19148683,22.3603996 6.07500984,20.1666089 6.94159069,21.4237168 C7.40622791,22.0977203 7.69393922,23.9859491 7.92213677,24.9030156 C8.23908982,26.176838 8.35609496,27.5427019 8.56260604,28.8438742 C8.76055702,30.0908195 9.18732879,31.3836279 9.45764005,32.6300086 C9.78858436,34.156479 9.86538369,34.6808921 10.7191562,36 C11.0659742,35.6839078 11.046679,35.5268071 10.9013097,35.0816205 C10.3170726,33.2927728 9.97221337,31.951659 9.50775422,30.135409 C8.94237988,27.9247594 8.94039566,24.5147477 8.10097058,22.3923449 Z" id="Fill-8" fill="#ffffff"></path>
                    <path d="M8.10097058,22.3923449 C7.89808451,21.8793155 7.87890376,20.726565 6.90924543,20.0899689 C6.62578238,19.9038771 6.49617238,20.0412171 6.18981453,20.1889824 C5.65425431,20.4472369 5.36216756,20.7506455 5.07603345,21.2926266 C4.59246986,22.208774 4.09286719,23.5831199 3.67967967,24.5800302 C3.21500429,25.701111 2.85305024,26.8518395 2.39165645,27.9645434 C1.94734472,29.0360715 1.44016133,30.276176 1.11841309,31.3884204 C0.933563026,32.02759 0.78882974,32.4898456 0.510136442,33.097188 C0.25057302,33.6629082 -0.0261106237,34.3223637 0.0019736628,34.9656823 C0.0424592987,35.8937387 0.886539654,35.4930104 1.26108584,33.2307203 C1.4631706,32.0099038 1.89139237,30.8386269 2.34687168,29.6987963 C2.79910755,28.5669226 3.1873143,27.4348388 3.62634751,26.3076262 C4.0588557,25.19701 4.54567543,24.1280422 4.95493268,23.0078279 C5.19148683,22.3603996 6.07500984,20.1666089 6.94159069,21.4237168 C7.40622791,22.0977203 7.69393922,23.9859491 7.92213677,24.9030156 C8.23908982,26.176838 8.35609496,27.5427019 8.56260604,28.8438742 C8.76055702,30.0908195 9.18732879,31.3836279 9.45764005,32.6300086 C9.78858436,34.156479 9.86538369,34.6808921 10.7191562,36 C11.0659742,35.6839078 11.046679,35.5268071 10.9013097,35.0816205 C10.3170726,33.2927728 9.97221337,31.951659 9.50775422,30.135409 C8.94237988,27.9247594 8.94039566,24.5147477 8.10097058,22.3923449 Z" id="Stroke-9" stroke="#ffffff" stroke-width="0.22"></path>
                    <path d="M34.4834921,36 C35.0285198,35.6533875 34.8815471,35.4197118 34.8424983,34.7956754 C34.8162164,34.3755784 34.9325043,32.4106468 34.9968171,32.0007875 C35.0671148,31.5530819 35.0963891,31.0368166 35.0844562,30.5844003 C35.0551573,29.4714529 35.1221437,28.3448953 35.166883,27.2297131 C35.2098931,26.1575429 35.4334917,25.0727528 35.5242581,23.9820743 C35.5983453,23.0916548 36.3073314,21.7082694 37.0029986,21.2122656 C37.6059863,20.7823456 37.7556447,20.7080715 38.5052003,20.7577615 C39.1297359,20.7991811 41.2968711,20.9517575 41.7492314,21.189274 C42.8285556,21.7560323 41.9035502,23.890764 42.839164,24.0225035 C43.0293921,23.6835593 43.0054403,22.7503151 42.989448,22.3263103 C42.9858669,22.2312394 42.9543727,21.9892129 42.9379266,21.8974074 C42.8938373,21.6515534 42.7279534,21.4277408 42.6893952,20.8618122 C41.393561,19.840483 39.8561001,20.1207841 38.8301369,20.0256062 C37.4458297,19.8972391 36.4982217,20.2327707 35.5673418,21.4590296 C35.1016014,22.0724802 34.973638,23.1607364 34.8569576,23.9400391 C34.7242726,24.8264705 34.6331874,26.0792138 34.5698434,26.9914739 C34.4967005,28.04448 34.4625941,29.0907412 34.3723428,30.1420344 C34.2824472,31.1891655 34.1928949,32.1996414 34.1362349,33.2511754 C34.087105,34.1619232 33.706649,35.4576786 34.4834921,36 Z" id="Fill-10" fill="#ffffff"></path>
                    <path d="M34.4834921,36 C35.0285198,35.6533875 34.8815471,35.4197118 34.8424983,34.7956754 C34.8162164,34.3755784 34.9325043,32.4106468 34.9968171,32.0007875 C35.0671148,31.5530819 35.0963891,31.0368166 35.0844562,30.5844003 C35.0551573,29.4714529 35.1221437,28.3448953 35.166883,27.2297131 C35.2098931,26.1575429 35.4334917,25.0727528 35.5242581,23.9820743 C35.5983453,23.0916548 36.3073314,21.7082694 37.0029986,21.2122656 C37.6059863,20.7823456 37.7556447,20.7080715 38.5052003,20.7577615 C39.1297359,20.7991811 41.2968711,20.9517575 41.7492314,21.189274 C42.8285556,21.7560323 41.9035502,23.890764 42.839164,24.0225035 C43.0293921,23.6835593 43.0054403,22.7503151 42.989448,22.3263103 C42.9858669,22.2312394 42.9543727,21.9892129 42.9379266,21.8974074 C42.8938373,21.6515534 42.7279534,21.4277408 42.6893952,20.8618122 C41.393561,19.840483 39.8561001,20.1207841 38.8301369,20.0256062 C37.4458297,19.8972391 36.4982217,20.2327707 35.5673418,21.4590296 C35.1016014,22.0724802 34.973638,23.1607364 34.8569576,23.9400391 C34.7242726,24.8264705 34.6331874,26.0792138 34.5698434,26.9914739 C34.4967005,28.04448 34.4625941,29.0907412 34.3723428,30.1420344 C34.2824472,31.1891655 34.1928949,32.1996414 34.1362349,33.2511754 C34.087105,34.1619232 33.706649,35.4576786 34.4834921,36 Z" id="Stroke-11" stroke="#ffffff" stroke-width="0.22"></path>
                    <path d="M71.495443,36 C72.1487047,35.7888234 71.8157275,35.3928055 71.8100039,34.8299303 C71.8047548,34.3168575 71.8168248,33.7905235 71.8235418,33.2765035 C71.8301403,32.7665791 71.749654,32.2897008 71.7454428,31.7883147 C71.7410686,31.2702256 71.7512109,30.7479608 71.7647044,30.2300584 C71.792062,29.1772972 71.2698056,25.9122979 70.7021311,25.0270745 C70.3821728,24.5281432 70.3363247,24.5249681 69.7595161,24.3257851 C69.1200445,24.1049629 69.1583304,23.9733661 68.3681768,24.0243425 C68.1006354,24.0415925 67.2944973,24.1997782 67.39555,23.718097 C67.4657457,23.3835284 68.8085827,22.2660627 69.0696442,22.1264746 C69.5939914,21.8461776 70.4147054,21.0305682 71.1911283,20.9467726 C71.5859827,20.9041477 71.5998914,21.0608659 71.8286723,20.7234556 C72.0236158,20.4360745 72.001967,20.5023398 71.9964658,20.1492404 C71.5872431,19.9361293 71.5143487,19.9556474 71.1466592,20.1797115 C70.8718077,20.3472093 70.5681751,20.364486 70.2797856,20.4982174 C69.7768352,20.7314736 69.4083302,21.1378975 68.8971799,21.4140721 C67.7737525,22.0210397 68.1522961,21.9212081 67.8365046,22.125981 C67.600962,22.2787368 67.0422288,22.6013118 66.8567307,22.8512844 C66.2008297,23.735147 65.1284699,24.5270893 67.2674362,24.7437758 C68.3895587,24.8574155 69.9476091,24.5570801 70.3873033,26.2445185 C70.7143938,27.4996112 70.6841002,27.8979771 70.9433972,29.0073447 C71.0115318,29.2989149 71.028925,29.6658224 71.0464072,29.9665446 L71.0641563,34.2736322 C71.0719262,35.4778152 70.8702508,35.803045 71.495443,36 Z" id="Fill-12" fill="#ffffff"></path>
                    <path d="M71.495443,36 C72.1487047,35.7888234 71.8157275,35.3928055 71.8100039,34.8299303 C71.8047548,34.3168575 71.8168248,33.7905235 71.8235418,33.2765035 C71.8301403,32.7665791 71.749654,32.2897008 71.7454428,31.7883147 C71.7410686,31.2702256 71.7512109,30.7479608 71.7647044,30.2300584 C71.792062,29.1772972 71.2698056,25.9122979 70.7021311,25.0270745 C70.3821728,24.5281432 70.3363247,24.5249681 69.7595161,24.3257851 C69.1200445,24.1049629 69.1583304,23.9733661 68.3681768,24.0243425 C68.1006354,24.0415925 67.2944973,24.1997782 67.39555,23.718097 C67.4657457,23.3835284 68.8085827,22.2660627 69.0696442,22.1264746 C69.5939914,21.8461776 70.4147054,21.0305682 71.1911283,20.9467726 C71.5859827,20.9041477 71.5998914,21.0608659 71.8286723,20.7234556 C72.0236158,20.4360745 72.001967,20.5023398 71.9964658,20.1492404 C71.5872431,19.9361293 71.5143487,19.9556474 71.1466592,20.1797115 C70.8718077,20.3472093 70.5681751,20.364486 70.2797856,20.4982174 C69.7768352,20.7314736 69.4083302,21.1378975 68.8971799,21.4140721 C67.7737525,22.0210397 68.1522961,21.9212081 67.8365046,22.125981 C67.600962,22.2787368 67.0422288,22.6013118 66.8567307,22.8512844 C66.2008297,23.735147 65.1284699,24.5270893 67.2674362,24.7437758 C68.3895587,24.8574155 69.9476091,24.5570801 70.3873033,26.2445185 C70.7143938,27.4996112 70.6841002,27.8979771 70.9433972,29.0073447 C71.0115318,29.2989149 71.028925,29.6658224 71.0464072,29.9665446 L71.0641563,34.2736322 C71.0719262,35.4778152 70.8702508,35.803045 71.495443,36 Z" id="Stroke-13" stroke="#ffffff" stroke-width="0.22"></path>
                    <path d="M66.8759965,21.5570429 C66.9692003,21.1403673 67.0925824,20.8603809 66.8925574,20.4339554 C66.8068492,20.251279 66.5602223,19.9028938 66.200142,20.025608 C65.5507181,20.2469051 65.7272557,21.5769761 65.744935,21.9959808 C65.7998369,23.2994155 65.3783991,24.5718264 65.4972093,25.8275675 C65.6369168,27.3042266 65.4468597,28.6442372 65.329109,30.1112546 C65.2752275,30.782973 65.0812067,31.4117237 65.0150812,32.0696161 C64.9432652,32.7836655 65.1517472,33.2831074 65.1427801,33.9191571 C65.1364422,34.3688877 64.7905288,35.683589 65.3986881,35.9512526 C66.207873,36.3073971 66.1632137,34.6016139 66.1416297,34.4123698 C65.9893446,33.0773154 66.2093642,31.3527229 66.2672094,29.9777208 C66.3721274,27.4847499 66.3600403,23.8645613 66.8759965,21.5570429 Z" id="Fill-14" fill="#ffffff"></path>
                    <path d="M66.8759965,21.5570429 C66.9692003,21.1403673 67.0925824,20.8603809 66.8925574,20.4339554 C66.8068492,20.251279 66.5602223,19.9028938 66.200142,20.025608 C65.5507181,20.2469051 65.7272557,21.5769761 65.744935,21.9959808 C65.7998369,23.2994155 65.3783991,24.5718264 65.4972093,25.8275675 C65.6369168,27.3042266 65.4468597,28.6442372 65.329109,30.1112546 C65.2752275,30.782973 65.0812067,31.4117237 65.0150812,32.0696161 C64.9432652,32.7836655 65.1517472,33.2831074 65.1427801,33.9191571 C65.1364422,34.3688877 64.7905288,35.683589 65.3986881,35.9512526 C66.207873,36.3073971 66.1632137,34.6016139 66.1416297,34.4123698 C65.9893446,33.0773154 66.2093642,31.3527229 66.2672094,29.9777208 C66.3721274,27.4847499 66.3600403,23.8645613 66.8759965,21.5570429 Z" id="Stroke-15" stroke="#ffffff" stroke-width="0.22"></path>
                    <path d="M100.085537,21.1560475 C100.561259,21.0657289 101.050165,21.0520647 101.552243,21.1152567 C102.054201,21.1784083 102.529004,21.129069 102.99234,21.0475549 C103.148519,21.0201591 103.309474,21.0250055 103.467982,20.9798664 C103.626569,20.9348755 103.758707,20.8714815 103.864343,20.790277 C104.564934,20.2527007 102.349596,20.312581 101.828706,20.3249797 C101.071239,20.3430327 100.322487,20.3792463 99.5826746,20.4332839 C98.8428625,20.4874292 98.111645,20.5054822 97.389368,20.4874292 C96.6672772,20.4693898 95.9624155,20.3069268 95.2754747,20 C94.9759285,20.0361059 94.6765152,20.0750657 94.3902467,20.1624629 C93.6239457,20.3961549 94.2175569,20.5876425 94.2459083,20.6006606 C94.4220705,20.6818651 94.6070136,20.7407492 94.8006709,20.7768416 C94.9945545,20.8128263 95.1926954,20.8400067 95.3952932,20.8579385 C95.5979576,20.8759914 95.781211,20.93987 95.96344,20.9664311 C96.4007256,21.03035 96.8445304,21.0612999 97.2846765,21.1423159 C97.7250088,21.2235205 98.8859285,21.2988151 99.3614507,21.280641 C99.5904842,22.4361904 99.7588368,23.7656456 99.8820479,24.9752999 C100.005179,26.1848466 100.111002,27.3947297 100.198943,28.6043975 C100.287111,29.814173 100.393053,31.0151307 100.516184,32.2066647 C100.639395,33.3982796 100.815557,34.5630237 101.044577,35.7004797 C101.340625,36.1855396 101.507128,36.0495705 101.610196,35.5216601 C101.645466,35.3411577 101.64991,35.1514605 101.623368,34.9527975 C101.596932,34.7542825 101.566119,34.5556464 101.530929,34.3569833 C101.495673,34.1583606 101.486839,33.9778582 101.504494,33.815328 C101.257925,31.6485585 101.028785,29.5135061 100.817473,27.409996 C100.606054,25.3065396 100.367482,23.1240866 100.085537,21.1560475" id="Fill-17" stroke="#ffffff" stroke-width="0.22" fill="#ffffff"></path>
                    <path d="M58.3759829,25.1137313 C58.6006156,25.5269982 58.4913415,26.498776 58.4203566,26.9096609 C58.325443,27.3341174 58.2043435,27.7029317 58.0241336,28.111911 C57.3028524,29.5980645 56.7578556,29.7089702 56.0416774,30.7353519 C55.7019315,31.5387005 57.5377893,30.3040668 57.9817553,29.7999034 C58.3642557,29.3237503 58.6016787,28.7975499 58.782412,28.2619067 C59.0348008,27.4080464 59.0667603,26.7098987 58.8827885,25.8429066 C58.8625726,25.7591441 58.4766375,24.6476806 58.3759829,25.1137313" id="Fill-18" fill="#FF6600"></path>
                    <path d="M86.1330213,22.148452 C86.6848032,22.1307752 87.8331309,22.5551637 88.3004745,22.7549816 C88.4136876,22.7906543 88.7437722,22.9934914 88.8541424,23.0637329 C89.509777,23.4916727 89.9330224,23.8941149 90.3581539,24.5401877 C91.0889772,25.9339248 91.1622107,28.217964 91.6433523,28.9141143 C92.355524,29.5530712 91.7820813,26.4183265 91.776257,26.3849947 C91.608573,25.5619415 91.3969711,24.9009319 90.927894,24.1763976 C90.2492674,23.2770245 89.5344747,22.7932613 88.4623897,22.3854589 C88.1021298,22.2564412 87.7759836,22.1675785 87.3999148,22.0917108 C87.3028572,22.0731695 85.5043449,21.863416 86.1330213,22.148452" id="Fill-19" fill="#6EB352"></path>
                    <path d="M19.9380547,32.8568514 C19.4385036,32.678065 18.6565292,31.8749175 18.341194,31.5204511 C18.0293966,31.1425526 17.7802229,30.787708 17.5347926,30.3701437 C16.6802123,28.809754 16.9191983,28.397754 16.4635836,27.188873 C15.9709026,26.3751642 15.9188042,28.4145549 16.0857861,29.0637257 C16.2663027,29.6548227 16.579803,30.1965705 16.9365057,30.7117123 C17.5285537,31.5123748 18.1162859,32.058944 18.9885113,32.6078497 C19.0718187,32.6573881 20.2840118,33.2718767 19.9380547,32.8568514" id="Fill-20" fill="#3DACB8"></path>
                </g>
            </g>
        </g>
    </g>
</svg>