
<svg width="327px" height="194px" viewBox="0 0 327 194" version="1.1" xmlns="http://www.w3.org/2000/svg" xmlns:xlink="http://www.w3.org/1999/xlink">
    <g id="Page-1" stroke="none" stroke-width="1" fill="none" fill-rule="evenodd">
        <g id="Вариант-1-чистовой-Copy" transform="translate(-437.000000, -295.000000)">
            <g id="Главная" transform="translate(0.000000, 167.000000)">
                <g id="лого-готовый" transform="translate(437.000000, 128.000000)">
                    <path d="M263.112809,62.5381943 C268.383604,61.7413147 276.240662,62.3567717 281.18121,65.0400584 C284.964029,67.0949146 289.780434,71.7702144 291.693452,75.6307858 C294.07837,80.4439189 294.466984,88.6100036 293.940857,93.8945216 C292.098127,112.406696 277.491612,108.720854 272.379234,116.446831 C266.283689,125.658564 280.623995,134.73858 290.882611,131.984847 C293.753463,131.214452 295.152357,129.585325 297.781132,128.364617 C304.223523,125.373271 305.570343,132.334595 300.021499,136.19905 C292.856272,141.956027 283.615884,142.555536 275.788176,137.447276 C269.912189,134.485224 266.297515,130.188718 265.250517,122.911443 C264.481568,117.567181 264.288793,113.059999 260.018219,109.037053 C256.796796,106.002407 253.104921,105.922045 249.645312,101.73036 C243.900836,94.7705645 241.607442,77.1123283 248.756318,69.2259179 C250.484963,67.3189763 252.762876,66.0229468 255.116955,65.0389015 C256.986301,64.2571439 261.183068,62.8299331 263.112809,62.5381943 Z M291.930561,71.0918318 C291.159211,70.0334573 287.490103,66.4467759 286.39873,65.515327 C279.247371,59.4119488 268.06503,59.1184333 259.294928,61.0767732 C245.461667,64.1655442 240.444125,75.4566349 242.410128,88.7715115 C245.614331,110.472485 257.974642,105.135123 261.37398,115.829473 C263.249412,121.729696 263.18852,133.540802 271.669231,137.5547 C281.356889,143.012667 289.067741,145.266009 298.14524,140.060572 C302.072941,137.808014 308.204292,132.30307 305.197791,127.238524 C301.965232,121.792374 293.743693,128.010902 290.119333,129.548429 C279.024419,133.51911 264.168293,120.204812 279.934027,112.981993 C285.501664,110.041137 290.333841,110.179548 294.064379,104.358158 C297.073571,99.661704 296.578034,94.2669524 296.369984,88.9464887 C296.243399,85.7014983 296.061055,82.2601699 295.298439,79.098681 C294.814659,77.0933638 293.11946,72.7230655 291.930561,71.0918318 L291.930561,71.0918318 Z" id="Fill-1" fill="#6EB352"></path>
                    <path d="M128.376434,113.292079 C128.814592,114.69777 128.517711,113.452954 128.464473,114.648745 C128.440138,115.195589 128.975013,115.161186 128.596697,116.209332 C127.362538,116.561553 125.243425,115.882749 125.935026,114.26249 C126.335352,113.324229 127.686619,112.047058 128.797275,112.183237 C128.868038,112.698831 128.710275,112.870396 128.376434,113.292079 Z M146.119439,80.4613614 C146.88554,75.510931 148.785926,70.5945351 152.653725,67.229019 C156.628416,63.7705328 161.210863,61.6999626 166.527145,61.3064986 C171.526446,60.9366252 178.276178,62.0650851 182.76631,64.315493 C186.862386,66.3682882 189.966907,70.7655263 191.864719,74.7944882 C195.339708,82.1715599 192.752288,93.4294968 188.734284,100.187191 C186.423397,104.073586 182.369513,107.555662 178.028134,108.949394 C172.921027,110.58923 168.059929,110.810761 164.708319,115.603511 C161.751636,119.831519 161.015434,124.514097 154.887745,125.78234 C148.37065,127.131143 146.091781,122.984187 141.341687,120.520398 C139.886144,119.765457 128.720034,116.166 131.632822,113.349049 C133.11569,111.91518 136.342884,112.323265 138.100498,112.952718 C141.026575,114.000699 142.351804,115.796004 144.589478,117.670723 C153.102348,124.80296 167.567993,111.848749 158.606376,104.717577 C154.155571,101.175991 150.2994,102.231386 147.446204,95.9686033 C145.553791,91.8147256 145.424806,84.9499722 146.119439,80.4613614 Z M144.566389,72.6384839 C144.461158,72.8207789 143.878941,77.9685761 143.777447,78.6497149 C143.430443,80.9778981 142.921563,83.2535758 142.61455,85.5939639 C142.074109,89.7145443 143.710131,95.8507729 146.431726,99.028424 C149.555558,102.675799 157.200999,104.765987 158.254886,109.218024 C159.488796,114.43004 152.792635,118.845258 147.625603,116.600216 C143.266824,114.706329 140.352624,109.565618 135.181938,108.638825 C132.467319,108.152268 129.489208,108.686907 127.147715,110.130319 C125.326522,111.25284 123.124064,113.477364 124.359136,115.756563 C126.294157,119.32731 135.784794,119.823492 139.83764,122.36309 C143.70602,124.787396 147.0269,129.068074 154.765653,127.755148 C162.359185,126.466714 162.385679,121.821611 166.189193,117.041148 C169.985523,112.269736 175.716416,112.145516 180.921113,109.866644 C190.525329,105.661571 196.787609,91.2972879 195.919931,81.405929 C195.436592,75.8967363 192.855277,70.2246207 189.055874,66.1563001 C184.978195,61.7902705 179.622836,60.0348975 173.781645,59.2802837 C168.21001,58.5604825 160.854639,59.1218251 156.039347,62.2029839 C154.597217,63.1258448 145.20172,71.5383655 144.566389,72.6384839 L144.566389,72.6384839 Z" id="Fill-2" fill="#FF6600"></path>
                    <path d="M79.2259932,154.814734 C79.3964485,154.570283 79.2621983,154.691001 79.5296167,154.458486 C80.0218813,154.030376 79.8057743,154.333927 80.0743579,154.264626 C80.1012829,154.257606 80.156839,154.254797 80.1837223,154.245092 C80.2115628,154.235015 80.2613344,154.212754 80.2885923,154.199167 C80.6888461,154.001467 80.2940023,153.965289 80.8905543,153.830074 L80.7363705,155.299754 L79.4701488,155.51575 L79.2259932,154.814734 Z M66.962074,63.3093034 C76.9966739,62.7073236 87.5291149,67.5844089 91.3205806,77.2227349 C93.2572211,82.1457039 92.954846,87.5633156 91.6400179,92.5916806 C87.4800508,108.499624 81.4727075,108.104389 76.8425317,115.565082 C74.2357638,119.765311 72.7900979,125.616773 73.1665062,130.532721 C73.7067946,137.587192 75.8511359,138.663165 78.5702229,144.382923 C79.4654463,146.26634 80.4612949,149.286275 79.9686973,151.379906 C78.7575323,156.528039 70.6996481,145.5849 68.8246396,139.748059 C67.1981146,134.684713 69.7939378,129.187476 69.8309752,123.988793 C69.9182836,111.773922 59.5659942,110.941327 51.2983701,106.283045 C46.3627397,103.501945 46.0823374,99.236173 45.2334732,94.0511594 C44.497261,89.5546892 43.1207594,83.5770166 44.1683771,79.1321293 C45.28312,74.4024001 48.4558945,70.6513837 52.4919319,68.0466316 C56.0727005,65.7356834 62.733442,63.5628816 66.962074,63.3093034 Z M41.0003468,87.1210405 C40.982161,89.4219117 41.6830004,93.8986408 42.2132596,96.1998837 C42.8090625,98.7865053 43.8076577,101.283838 45.2127073,103.544318 C48.2630086,108.451841 52.5092438,109.70156 57.5474969,111.687152 C74.1230702,118.219393 64.4310455,129.563177 66.0628556,139.466273 C66.7912857,143.886918 69.6411689,148.204562 72.2198466,151.860507 C75.5892523,156.637854 81.1611771,159.290968 82.9466716,154.377498 C84.9151476,148.960795 80.2276262,143.664851 78.2452092,139.136126 C76.1299985,134.304222 75.1979874,128.104937 76.3042408,122.930744 C77.6130347,116.808936 80.4342867,114.755201 84.5853066,110.629351 C87.516131,107.716423 90.7476243,101.938598 92.5179294,98.1637106 C95.0054285,92.8600027 95.3117986,89.0294849 94.7769202,83.228615 C94.2209845,77.1982444 93.2016233,72.8806417 88.6891766,68.6004564 C80.3503075,60.6907986 68.4373282,59.2063749 57.7939414,62.980932 C46.8994909,66.8445305 41.090818,75.6449746 41.0003468,87.1210405 L41.0003468,87.1210405 Z" id="Fill-3" fill="#3DACB8"></path>
                    <path d="M160.741008,19.2195832 C161.311112,19.0228505 162.339367,19.6896714 163.172169,19.8801684 C167.128983,20.785946 168.287098,22.028252 170.442906,21.1368208 C171.235964,20.8091774 171.660244,20.2713923 172.385518,19.9133443 C173.510962,19.3570557 177.736843,17.3349103 178.584989,17.2051816 C178.418652,19.0183265 177.32861,28.523286 176.557347,29.4696166 C175.99266,29.5805157 173.621756,28.8018175 172.825265,28.6143365 C170.785671,28.133244 170.805357,28.540037 169.045707,28.4604391 C166.285594,28.3354382 162.53453,29.9923625 162.099746,29.6640262 C161.970175,29.4558408 160.897172,25.2209308 160.8267,24.7345807 C160.639602,23.4470755 160.869256,22.9112467 160.871489,21.7383902 C160.872895,20.7834191 160.217431,20.1291513 160.741008,19.2195832 Z M193.525844,19.1901161 C193.718939,18.4391733 194.033334,18.360472 194.603562,17.8165734 L195.852331,19.2112688 L195.5228,19.9970994 C194.855838,20.0334952 194.034657,19.6163093 193.525844,19.1901161 Z M170.161762,5.75131658 C170.146294,4.56089389 166.419714,3.34597639 166.242707,2.73678548 C166.9265,2.1086427 171.748251,3.57494773 172.871213,3.8970482 C175.197948,4.56448048 177.541267,4.83759135 179.810309,5.54198999 C181.859539,6.1781211 184.433588,7.28629671 186.458749,7.59335795 C189.165636,8.0043081 191.234924,7.55916305 193.734986,8.99208831 C192.350856,10.4222421 189.585118,11.1144952 187.653837,11.6348772 C183.333827,12.7990526 179.395086,15.1153393 175.154068,16.6228086 C173.306163,17.2800517 170.773264,18.8551773 168.956169,19.0281488 C168.07469,19.1122707 162.378739,17.4205402 161.675714,16.9218816 C160.286497,15.9365468 160.394107,15.9565176 158.660843,15.6970602 C156.83436,15.4235825 156.970259,15.0980177 155.556434,14.2817826 C149.448652,10.7562436 146.81141,11.7765069 142.220927,8.83937283 C144.075532,7.24480635 147.577959,6.77655223 149.990385,6.36503149 C152.642391,5.91295779 155.362388,5.01561677 157.916999,4.1848315 C160.247828,3.42675624 165.358994,3.37014514 167.487009,4.87398712 C167.771172,5.07499933 170.181117,7.24631435 170.161762,5.75131658 Z M179.028954,28.6205723 C179.108897,27.140247 179.281934,25.5570109 179.476559,24.0850406 C179.659646,22.6977629 180.108078,16.6618536 181.131163,16.0803773 C182.85657,15.0992812 185.364282,13.8661047 187.273396,13.4695009 C188.621918,13.1894613 193.053549,11.3911927 193.903225,11.6360184 C194.104881,12.6472745 194.178951,13.7235376 194.013648,14.8060772 C193.677541,17.0090195 188.471751,20.2311654 192.515538,21.0947598 C195.162665,21.6599334 196.237322,23.7703579 197.399324,21.1664101 C198.677829,18.3025975 197.722404,18.4612227 196.335668,16.6740806 C193.553181,13.0889145 200.296122,8.49530448 192.732207,6.86042959 C190.449931,6.36711008 188.075387,6.43631501 185.886329,5.9133246 C183.965139,5.45407772 182.038077,4.73859325 180.119203,4.20484305 C176.092413,3.08521481 172.276626,2.08528909 168.255915,0.865073219 C160.616152,-1.4532921 164.302038,1.48787688 157.951573,2.70687004 C156.467897,2.99163734 154.426194,3.92455899 152.717413,4.33330828 C150.853088,4.7791462 148.918499,5.02429795 147.045614,5.43859016 C145.140139,5.85993328 143.465808,6.32782059 141.600533,6.81779805 C139.187321,7.45172829 138.450756,6.39934866 137,9.03378245 C138.870445,10.8395503 138.461302,11.1687017 141.272532,11.3932713 C142.54686,11.4952854 142.859724,11.7207109 143.953984,12.252138 C145.129593,12.8235474 145.370373,12.8109536 146.647389,13.0161637 C148.200131,13.2660433 150.335839,14.2521932 151.943337,14.7741647 C153.479908,15.2730271 154.82843,16.3809989 156.249368,17.1557437 C157.008348,17.5695468 158.275025,17.5925744 158.527095,18.4034704 C158.786981,19.2378422 158.444795,19.8826138 158.925072,21.0328503 C159.529419,22.4806518 158.802821,24.0703682 159.581694,26.3332636 C160.280169,28.3616448 159.312751,29.3749795 160.611231,31.5614967 C161.009704,32.2325156 161.714838,32.8674648 162.517904,32.9682154 C163.873788,33.1382933 163.914938,32.6109827 164.507209,31.741397 C165.462882,31.5048856 165.615613,31.1488348 166.110365,31.0453127 C169.268703,30.3857465 172.354128,29.8011726 175.393731,31.688617 C179.7259,34.3785207 178.851699,31.9075214 179.028954,28.6205723 L179.028954,28.6205723 Z" id="Fill-4" fill="#FF6600"></path>
                    <path d="M152.225056,33.9018312 C154.616802,34.4987695 154.276207,35.9648463 156.557801,36.1849136 C162.201414,36.7289904 159.461449,42.6094879 164.327195,38.5006196 C165.715413,37.3281548 169.464304,37.3669307 169.3919,37.7520992 C169.315374,37.7788132 164.436647,40.8221541 165.399997,41.1011948 C165.769974,41.2080106 169.205551,38.3560397 170.775914,38.6497732 C173.037645,39.0724628 176.599858,40.8614966 177.972087,40.4519212 C178.601353,40.2638703 182.277387,36.6987144 183.115625,35.9618915 C184.447756,34.791491 184.49148,34.9122711 185.899313,34.0723156 C187.095701,33.358645 187.032156,32.6039317 188.605527,32.3958048 C189.362583,37.7340874 186.018902,48.6218153 183.66956,53.7057475 C183.155103,54.8186723 182.975925,55.1735243 181.905555,55.6425588 C170.020589,51.2602759 167.94397,53.7886826 155.891364,55.0271231 C155.648394,54.5751694 155.383336,53.4285283 155.131836,52.7666262 C154.790169,51.8665236 154.683149,50.97654 154.401524,50.2439671 C154.143389,49.572189 153.910681,48.4121908 153.597366,47.9691013 C151.711547,45.3009314 151.749047,37.0730758 152.225056,33.9018312 Z M150.755779,29 C150.390377,29.9296904 149.989575,36.1913493 150.000207,37.4690513 C150.013765,39.0703985 150.033999,43.9531656 150.513634,45.2260106 C150.726232,45.7895967 150.997925,46.2370575 151.15621,46.8451671 C151.304564,47.4155127 151.287956,48.0614673 151.519841,48.5877346 C151.746368,49.1016569 152.107774,49.2979649 152.285427,49.9201601 C152.443135,50.4724939 152.420841,51.1400221 152.55131,51.715751 C152.654827,52.1710237 153.348915,55.1162914 153.406856,55.2074836 C154.492309,56.9202609 150.712881,59.5006386 156.812804,56.8841159 C157.675809,56.5138426 159.384552,56.3001299 160.37749,56.0975077 C161.583357,55.8513739 162.753824,55.4554388 163.987012,55.356192 C165.458184,55.2378 166.778283,55.413101 168.209028,55.3840798 C171.227609,55.3224756 173.705812,55.4397342 176.678609,56.0903839 C179.894624,56.7943809 181.952286,58.1395562 184.671111,56.2838181 C185.252492,55.8869522 187.705475,47.8189358 188.657286,45.7543827 C190.058814,42.7140371 189.941532,40.8763108 190.558435,37.7210946 C191.108744,34.9063211 191.165984,32.3634645 190.609452,29.5493386 C189.158762,29.1975628 189.117182,29.2985501 187.977085,30.1520649 C187.233216,30.7092154 186.526724,31.0586841 185.803996,31.6761841 L179.428506,36.3524433 C178.771547,37.0204167 178.153737,37.7898227 177.07904,37.4358611 C175.380805,36.8773345 176.945192,36.0589527 171.089764,35.3819936 C169.454043,35.1930522 166.30998,35.4198791 164.767681,36.013984 C161.292955,37.3517927 162.816215,37.0230476 159.983365,35.1376408 L153.519357,30.2192954 C152.56462,29.2360148 152.11956,29.1674082 150.755779,29 L150.755779,29 Z" id="Fill-5" fill="#FF6600"></path>
                    <path d="M267.012551,43.1306425 C267.461587,44.9507804 267.295897,43.1715887 268.438274,45.8932736 C270.828215,51.1943259 270.277222,53.1787356 270.275464,53.1823067 C269.70497,53.3111513 269.032847,53.1614887 268.39911,53.2826229 C263.12698,54.2886658 267.230078,52.3909777 259.165084,55.0496403 C254.600113,56.554464 251.229642,57.608636 247.08137,60.3970361 C246.345881,60.8914341 246.12451,61.3137197 245.515793,61.8472378 C244.972526,62.3231309 244.326852,62.689293 243.75366,63.1593019 C242.63667,64.0756609 241.786919,65.1925305 240.416017,65.6545044 C239.517822,64.7666738 239.497994,64.0855627 239.084075,63.009761 C238.749055,62.1396643 238.079916,61.4873251 237.828907,60.4899665 C236.254091,54.2295394 240.043346,53.1350299 239.863266,50.9407759 C239.792909,50.0841115 239.278177,50.0481162 239.34003,48.4801079 C239.348166,48.2817887 239.999644,46.3035878 240.07229,46.1937351 C241.516205,46.1186197 248.152819,51.9232819 249.207956,51.2988625 C249.22995,50.5184903 248.301748,50.3919588 248.087,49.6233145 C248.885078,47.903087 252.022037,47.714913 253.687282,47.830163 C256.221983,48.0052699 256.793049,47.7087041 258.84838,49.4780347 C261.060938,51.3831897 261.968169,48.6048132 263.144027,47.1816384 C263.87179,46.3009501 266.040197,43.1404225 267.012551,43.1306425 Z M239.439943,69 C245.528057,65.5172595 246.45119,61.7224513 255.781981,58.3924576 C261.928759,56.1988124 265.598438,57.2104149 266.853442,56.8027384 C268.088538,56.401839 267.154408,54.8946616 269.35086,55.6063707 C271.190257,56.2025864 273.033947,57.4930208 272.999525,54.6000842 C272.985871,53.4455961 272.113267,50.1452265 271.813569,48.7683951 C271.361548,46.6913391 270.185444,44.7436145 269.73465,42.7592048 C269.431599,41.4259575 269.302743,38.211376 267.112546,39.178583 C264.175168,40.4752264 262.352899,47.20899 259.081074,46.5125799 C256.544738,45.9727311 257.022759,45.4225343 253.872677,45.5568979 C250.821364,45.6868787 251.30057,45.4164471 248.280163,46.5679323 C245.953137,47.455073 245.10265,46.8963541 243.315171,45.4036641 C241.437877,43.8357775 240.661344,43.8459228 238.343434,43.4703053 C236.741228,44.6437853 237.321942,47.774283 237.129475,49.544628 C236.854101,52.0815477 237.103842,50.6750517 235.829828,52.4208859 C235.186812,53.3019394 235.404544,54.3364296 235.093399,55.4178315 C234.857679,56.2385006 235.132317,56.2816381 235.216941,57.0479693 C235.268942,57.5192767 235.152594,58.1145591 235.162815,58.6243779 C235.215756,61.2771563 236.845311,63.6332471 237.838064,65.6595364 C238.131017,66.2569289 238.238125,66.9312224 238.500703,67.4140143 C238.886006,68.1234509 239.178264,68.073861 239.439943,69 L239.439943,69 Z" id="Fill-6" fill="#6EB352"></path>
                    <path d="M71.3925523,37.861087 C72.4144735,38.1164182 72.4352702,38.5372541 72.6805066,39.4953061 C72.9357913,40.4913217 73.1075185,40.7779366 73.4980024,41.6791884 C76.4553761,48.4979913 80.0037881,41.9515721 87.1220675,47.8479631 C87.8231842,48.428744 88.5183295,48.6176077 89.1647981,49.3112837 C92.1532227,52.5183993 91.997721,51.4463734 95.3669519,50.012262 C96.076799,49.7102127 96.7574895,49.4621838 97.3977809,49.019607 C100.628559,46.7845672 98.8707642,51.1531616 98.8980675,51.8717733 C98.9224882,52.5107651 99.1385681,52.3865432 99.0026688,53.2187552 C98.38338,57.0083942 97.3474982,59.1182164 95.1191211,61.9903809 C94.7114645,62.5159798 94.3414479,63.9351963 93.5721345,63.5767203 C93.3295749,63.4636593 92.950869,63.039919 92.6429542,62.8404753 C91.2215716,61.9196815 85.9926624,58.3738808 85.1221659,57.6385486 C78.3041002,51.8793245 66.685908,55.4840414 64.8159343,53.7667173 C65.1164364,52.5157024 64.8391607,52.4160842 64.9893088,51.5541237 C65.3456943,49.5061635 65.664481,49.2970525 65.9793143,46.5794393 C66.1233675,45.3374693 68.1983432,42.1618863 69.0713106,41.2101823 C69.8823821,40.3262319 70.6080017,38.5885361 71.3925523,37.861087 Z M101.913096,45.8556414 C100.790485,45.1343744 99.7390369,45.4904854 98.6537372,46.085456 C97.6798337,46.6190625 96.6477818,46.8805342 95.6516814,47.4145971 C92.3816982,49.1674369 92.4331752,48.8717772 89.7197612,46.6410523 C87.4395776,44.7663556 85.8516154,44.0298617 82.9794876,43.4096235 C81.5259009,43.0954591 80.106289,42.6959492 78.6229281,42.5747976 C77.4610718,42.4797848 76.228342,42.6176155 75.5949279,41.4363458 C75.1697691,40.6430517 73.5004733,31.3774841 70.0505677,36.5745565 C69.3701243,37.5994078 68.6021287,38.2096054 67.9533127,39.1379918 C67.1982894,40.2183572 66.8806558,41.1033863 65.9501577,42.1565756 C65.0518636,43.1728385 64.4555953,43.7196388 64.062064,45.0966182 C63.5449468,46.9041422 63.0673638,50.4485737 62.2372665,53.5976029 C60.940664,58.5155701 65.3185968,56.6889606 66.6658526,56.6492129 C68.1558438,56.6054821 68.8579076,56.9913417 70.5064479,56.6674686 C72.3348695,56.3082873 77.1144463,57.1540251 78.3538475,57.2104519 C79.7165053,57.2724384 80.7804317,57.7259271 81.9151905,58.4807598 C90.8433598,64.4212549 87.501803,61.6756357 90.390527,64.6676656 C91.755738,66.0824012 92.2559708,65.6231038 93.8228892,65.7958693 C94.3833295,65.8573994 95.4973328,66.7520543 96.4817788,64.2360423 C97.2847787,62.1838501 100.925643,58.629212 101.095023,53.9446691 C101.158525,52.1941527 102.322029,47.7333254 101.913096,45.8556414 L101.913096,45.8556414 Z" id="Fill-7" fill="#3DACB8"></path>
                    <path d="M25.7758155,69.6255994 C25.1302689,67.9903181 25.0692392,64.3159259 21.9839627,62.2867759 C21.0820348,61.6936082 20.6696394,62.1313796 19.6948644,62.6023815 C17.9908092,63.4255675 17.0614422,64.3926824 16.1510155,66.1202473 C14.6124041,69.0404673 13.0227592,73.4211948 11.7080717,76.5988461 C10.2295591,80.1722913 9.07788713,83.8402383 7.60981597,87.386982 C6.19609683,90.8024779 4.5823315,94.7553111 3.5585871,98.30059 C2.97042781,100.337943 2.50991281,101.811383 1.62316141,103.747287 C0.797277791,105.55052 -0.0830792574,107.652534 0.00627983618,109.703112 C0.135097769,112.661292 2.82080799,111.383971 4.01254586,104.172921 C4.65554282,100.281568 6.01806664,96.5481232 7.46731897,92.9149134 C8.90625129,89.3070658 10.1414546,85.6985487 11.5383784,82.1055586 C12.9145409,78.5654693 14.4635127,75.1581345 15.7656949,71.5874515 C16.5183672,69.5237736 19.3295768,62.5310657 22.0868795,66.5380972 C23.5652706,68.6864834 24.4807157,74.7052127 25.2067988,77.6283623 C26.2152858,81.6886713 26.5875749,86.0423624 27.2446556,90.189849 C27.8744996,94.1644871 29.2324098,98.285314 30.0924911,102.258152 C31.1454957,107.123777 31.3898572,108.795344 34.106406,113 C35.209918,111.992456 35.1485241,111.491697 34.6859855,110.072665 C32.8270493,104.370713 31.7297698,100.095913 30.2519452,94.3066163 C28.4530269,87.2601705 28.4467135,76.3907582 25.7758155,69.6255994 Z" id="Fill-8" fill="#151616"></path>
                    <path d="M25.7758155,69.6255994 C25.1302689,67.9903181 25.0692392,64.3159259 21.9839627,62.2867759 C21.0820348,61.6936082 20.6696394,62.1313796 19.6948644,62.6023815 C17.9908092,63.4255675 17.0614422,64.3926824 16.1510155,66.1202473 C14.6124041,69.0404673 13.0227592,73.4211948 11.7080717,76.5988461 C10.2295591,80.1722913 9.07788713,83.8402383 7.60981597,87.386982 C6.19609683,90.8024779 4.5823315,94.7553111 3.5585871,98.30059 C2.97042781,100.337943 2.50991281,101.811383 1.62316141,103.747287 C0.797277791,105.55052 -0.0830792574,107.652534 0.00627983618,109.703112 C0.135097769,112.661292 2.82080799,111.383971 4.01254586,104.172921 C4.65554282,100.281568 6.01806664,96.5481232 7.46731897,92.9149134 C8.90625129,89.3070658 10.1414546,85.6985487 11.5383784,82.1055586 C12.9145409,78.5654693 14.4635127,75.1581345 15.7656949,71.5874515 C16.5183672,69.5237736 19.3295768,62.5310657 22.0868795,66.5380972 C23.5652706,68.6864834 24.4807157,74.7052127 25.2067988,77.6283623 C26.2152858,81.6886713 26.5875749,86.0423624 27.2446556,90.189849 C27.8744996,94.1644871 29.2324098,98.285314 30.0924911,102.258152 C31.1454957,107.123777 31.3898572,108.795344 34.106406,113 C35.209918,111.992456 35.1485241,111.491697 34.6859855,110.072665 C32.8270493,104.370713 31.7297698,100.095913 30.2519452,94.3066163 C28.4530269,87.2601705 28.4467135,76.3907582 25.7758155,69.6255994 Z" id="Stroke-9"></path>
                    <path d="M105.61164,112 C107.428399,110.938499 106.93849,110.222867 106.808328,108.311756 C106.720721,107.025209 107.108348,101.007606 107.322724,99.7524117 C107.557049,98.3813133 107.65463,96.8002508 107.614854,95.4147259 C107.517191,92.0063246 107.740479,88.556242 107.88961,85.1409963 C108.032977,81.8574751 108.778306,78.5353054 109.08086,75.1951024 C109.327818,72.4681929 111.691105,68.2315751 114.009995,66.7125633 C116.019954,65.3959334 116.518816,65.1684689 119.017334,65.3206447 C121.09912,65.447492 128.322904,65.9147573 129.830771,66.6421518 C133.428519,68.3778491 130.345167,74.9154646 133.46388,75.3189169 C134.097974,74.2809002 134.018134,71.42284 133.964827,70.1243253 C133.95289,69.8331708 133.847909,69.0919645 133.793089,68.8108102 C133.646124,68.0578824 133.093178,67.3724561 132.964651,65.6392999 C128.645203,62.5114791 123.520334,63.3699013 120.100456,63.0784189 C115.486099,62.6852947 112.327406,63.7128603 109.224473,67.4682781 C107.672005,69.3469706 107.24546,72.6797553 106.856525,75.0663699 C106.414242,77.781066 106.110625,81.6175923 105.899478,84.4113887 C105.655668,87.63622 105.54198,90.840395 105.241143,94.0599803 C104.941491,97.2668194 104.642983,100.361402 104.454116,103.581725 C104.29035,106.37089 103.022163,110.339141 105.61164,112 Z" id="Fill-10" fill="#151616"></path>
                    <path d="M105.61164,112 C107.428399,110.938499 106.93849,110.222867 106.808328,108.311756 C106.720721,107.025209 107.108348,101.007606 107.322724,99.7524117 C107.557049,98.3813133 107.65463,96.8002508 107.614854,95.4147259 C107.517191,92.0063246 107.740479,88.556242 107.88961,85.1409963 C108.032977,81.8574751 108.778306,78.5353054 109.08086,75.1951024 C109.327818,72.4681929 111.691105,68.2315751 114.009995,66.7125633 C116.019954,65.3959334 116.518816,65.1684689 119.017334,65.3206447 C121.09912,65.447492 128.322904,65.9147573 129.830771,66.6421518 C133.428519,68.3778491 130.345167,74.9154646 133.46388,75.3189169 C134.097974,74.2809002 134.018134,71.42284 133.964827,70.1243253 C133.95289,69.8331708 133.847909,69.0919645 133.793089,68.8108102 C133.646124,68.0578824 133.093178,67.3724561 132.964651,65.6392999 C128.645203,62.5114791 123.520334,63.3699013 120.100456,63.0784189 C115.486099,62.6852947 112.327406,63.7128603 109.224473,67.4682781 C107.672005,69.3469706 107.24546,72.6797553 106.856525,75.0663699 C106.414242,77.781066 106.110625,81.6175923 105.899478,84.4113887 C105.655668,87.63622 105.54198,90.840395 105.241143,94.0599803 C104.941491,97.2668194 104.642983,100.361402 104.454116,103.581725 C104.29035,106.37089 103.022163,110.339141 105.61164,112 Z" id="Stroke-11"></path>
                    <path d="M224.570422,112 C226.42133,111.340073 225.477895,110.102517 225.461678,108.343532 C225.446805,106.74018 225.481003,105.095386 225.500035,103.489073 C225.518731,101.89556 225.290686,100.405315 225.278755,98.8384836 C225.266361,97.2194551 225.295098,95.5873774 225.333329,93.9689326 C225.410842,90.6790538 223.931116,80.475931 222.322705,77.7096078 C221.416156,76.1504476 221.286253,76.1405252 219.651962,75.5180785 C217.840126,74.828009 217.948603,74.4167689 215.709834,74.5760702 C214.9518,74.6299767 212.667742,75.1243069 212.954058,73.6190532 C213.152946,72.5735262 216.957651,69.0814461 217.697325,68.6452331 C219.182976,67.7693051 221.508332,65.2205256 223.708197,64.9586644 C224.826951,64.8254616 224.866359,65.3152058 225.514572,64.2607987 C226.066911,63.3627327 226.005573,63.5698119 225.989986,62.4663761 C224.830522,61.800404 224.623988,61.861398 223.582201,62.5615984 C222.803455,63.085029 221.943163,63.1390188 221.126059,63.5569294 C219.701033,64.2858549 218.656935,65.5559297 217.208676,66.4189752 C214.025632,68.3157491 215.098172,68.0037753 214.20343,68.6436905 C213.536059,69.1210525 211.952982,70.1290993 211.427404,70.9102636 C209.569017,73.6723344 206.530665,76.147154 212.591069,76.8242993 C215.770416,77.1794233 220.184892,76.2408754 221.430693,81.5141204 C222.357449,85.436285 222.271617,86.6811783 223.006292,90.1479521 C223.19934,91.059109 223.248621,92.205695 223.298154,93.1454519 L223.348443,106.605101 C223.370457,110.368172 222.799044,111.384516 224.570422,112 Z" id="Fill-12" fill="#151616"></path>
                    <path d="M224.570422,112 C226.42133,111.340073 225.477895,110.102517 225.461678,108.343532 C225.446805,106.74018 225.481003,105.095386 225.500035,103.489073 C225.518731,101.89556 225.290686,100.405315 225.278755,98.8384836 C225.266361,97.2194551 225.295098,95.5873774 225.333329,93.9689326 C225.410842,90.6790538 223.931116,80.475931 222.322705,77.7096078 C221.416156,76.1504476 221.286253,76.1405252 219.651962,75.5180785 C217.840126,74.828009 217.948603,74.4167689 215.709834,74.5760702 C214.9518,74.6299767 212.667742,75.1243069 212.954058,73.6190532 C213.152946,72.5735262 216.957651,69.0814461 217.697325,68.6452331 C219.182976,67.7693051 221.508332,65.2205256 223.708197,64.9586644 C224.826951,64.8254616 224.866359,65.3152058 225.514572,64.2607987 C226.066911,63.3627327 226.005573,63.5698119 225.989986,62.4663761 C224.830522,61.800404 224.623988,61.861398 223.582201,62.5615984 C222.803455,63.085029 221.943163,63.1390188 221.126059,63.5569294 C219.701033,64.2858549 218.656935,65.5559297 217.208676,66.4189752 C214.025632,68.3157491 215.098172,68.0037753 214.20343,68.6436905 C213.536059,69.1210525 211.952982,70.1290993 211.427404,70.9102636 C209.569017,73.6723344 206.530665,76.147154 212.591069,76.8242993 C215.770416,77.1794233 220.184892,76.2408754 221.430693,81.5141204 C222.357449,85.436285 222.271617,86.6811783 223.006292,90.1479521 C223.19934,91.059109 223.248621,92.205695 223.298154,93.1454519 L223.348443,106.605101 C223.370457,110.368172 222.799044,111.384516 224.570422,112 Z" id="Stroke-13"></path>
                    <path d="M208.689991,66.7684438 C208.923001,65.492375 209.231456,64.6349165 208.731393,63.3289884 C208.517123,62.7695419 207.900556,61.7026124 207.000355,62.0784244 C205.376795,62.7561468 205.818139,66.8294894 205.862337,68.1126912 C205.999592,72.10446 204.945998,76.0012183 205.243023,79.8469256 C205.592292,84.369194 205.117149,88.4729765 204.822773,92.9657174 C204.688069,95.0228547 204.203017,96.948404 204.037703,98.9631992 C203.858163,101.149976 204.379368,102.679516 204.35695,104.627419 C204.341106,106.004719 203.476322,110.030991 204.99672,110.850711 C207.019682,111.941404 206.908034,106.717443 206.854074,106.137883 C206.473361,102.049279 207.023411,96.7677139 207.168024,92.5567699 C207.430318,84.9220465 207.400101,73.8352191 208.689991,66.7684438 Z" id="Fill-14" fill="#151616"></path>
                    <path d="M208.689991,66.7684438 C208.923001,65.492375 209.231456,64.6349165 208.731393,63.3289884 C208.517123,62.7695419 207.900556,61.7026124 207.000355,62.0784244 C205.376795,62.7561468 205.818139,66.8294894 205.862337,68.1126912 C205.999592,72.10446 204.945998,76.0012183 205.243023,79.8469256 C205.592292,84.369194 205.117149,88.4729765 204.822773,92.9657174 C204.688069,95.0228547 204.203017,96.948404 204.037703,98.9631992 C203.858163,101.149976 204.379368,102.679516 204.35695,104.627419 C204.341106,106.004719 203.476322,110.030991 204.99672,110.850711 C207.019682,111.941404 206.908034,106.717443 206.854074,106.137883 C206.473361,102.049279 207.023411,96.7677139 207.168024,92.5567699 C207.430318,84.9220465 207.400101,73.8352191 208.689991,66.7684438 Z" id="Stroke-15"></path>
                    <!--<text id="говорим-свободно!" font-family="Georgia" font-size="30" font-weight="normal" letter-spacing="1.463637" fill="#0B0B0B">
                        <tspan x="18" y="187">говорим свободно!</tspan>
                    </text>-->
                    <path d="M314.865165,66.5403954 C316.339903,66.2637949 317.855512,66.2219482 319.411953,66.4154737 C320.968022,66.6088755 322.439914,66.4577739 323.876254,66.2081367 C324.360409,66.1242372 324.859371,66.1390794 325.350744,66.000841 C325.842364,65.8630561 326.251993,65.6689122 326.579465,65.4202232 C328.751297,63.7738959 321.883747,63.9572792 320.268989,63.9952505 C317.920842,64.0505376 315.599709,64.1614416 313.306291,64.3269319 C311.012874,64.492752 308.746099,64.5480391 306.507041,64.492752 C304.268559,64.4375061 302.083488,63.9399634 299.953972,63 C299.025378,63.1105742 298.097197,63.2298888 297.209765,63.4975428 C294.834232,64.2132244 296.674426,64.7996553 296.762316,64.839523 C297.308419,65.088212 297.881742,65.2685444 298.48208,65.3790774 C299.083119,65.4892806 299.697356,65.5725205 300.325409,65.6274365 C300.953669,65.6827236 301.521754,65.8783518 302.086664,65.9596952 C303.442249,66.155447 304.818044,66.2502308 306.182497,66.4983425 C307.547527,66.7470315 311.146378,66.9776212 312.620497,66.921963 C313.330501,70.460833 313.852394,74.5322897 314.234348,78.2368561 C314.616055,81.9410926 314.944105,85.6463598 315.216723,89.3509674 C315.490043,93.0559048 315.818463,96.7338377 316.20017,100.382911 C316.582125,104.032231 317.128227,107.59926 317.83819,111.082719 C318.755936,112.568215 319.272097,112.15181 319.591609,110.535084 C319.700945,109.982295 319.71472,109.401348 319.632439,108.792942 C319.550489,108.18499 319.454969,107.576667 319.345881,106.968261 C319.236586,106.359979 319.2092,105.807191 319.26393,105.309442 C318.499568,98.6737103 317.789234,92.1351126 317.134166,85.6931127 C316.478769,79.2512777 315.739194,72.5675152 314.865165,66.5403954" id="Fill-17" fill="#000000"></path>
                    <path d="M185.335954,79.3791042 C185.934975,80.7566608 185.643577,83.9959201 185.454284,85.3655365 C185.201181,86.7803914 184.878249,88.0097724 184.39769,89.3730367 C182.474273,94.3268817 181.020948,94.6965674 179.11114,98.1178396 C178.205151,100.795668 183.100771,96.6802228 184.284681,94.9996779 C185.304682,93.4125011 185.93781,91.6584996 186.419765,89.8730224 C187.092802,87.0268214 187.178028,84.6996625 186.687436,81.8096888 C186.633527,81.5304802 185.604367,77.8256019 185.335954,79.3791042" id="Fill-18" fill="#FF6600"></path>
                    <path d="M269.399064,69.4665634 C271.05441,69.4110079 274.499393,70.7448003 275.901424,71.3727992 C276.241063,71.4849135 277.231317,72.1224016 277.562427,72.3431606 C279.529331,73.6881142 280.799067,74.9529325 282.074462,76.9834471 C284.266932,81.3637637 284.486632,88.5421725 285.930057,90.7300735 C288.066572,92.7382238 286.346244,82.886169 286.328771,82.7814119 C285.825719,80.1946732 285.190913,78.1172144 283.783682,75.8401069 C281.747802,73.0135055 279.603424,71.4931068 276.387169,70.2114422 C275.306389,69.8059579 274.327951,69.5266754 273.199745,69.288234 C272.908572,69.2299613 267.513035,68.5707359 269.399064,69.4665634" id="Fill-19" fill="#6EB352"></path>
                    <path d="M61.8296504,103.570554 C60.4558849,103.034195 58.3054554,100.624753 57.4382836,99.5613533 C56.5808407,98.4276577 55.8956131,97.363124 55.2206796,96.110431 C52.8705839,91.429262 53.5277952,90.1932619 52.2748549,86.566619 C50.9199821,84.1254925 50.7767117,90.2436646 51.2359119,92.1911771 C51.7323325,93.9644681 52.5944582,95.5897114 53.5753906,97.1351369 C55.2035227,99.5371244 56.8197863,101.176832 59.2184059,102.823549 C59.4475014,102.972164 62.7810325,104.81563 61.8296504,103.570554" id="Fill-20" fill="#3DACB8"></path>
                </g>
            </g>
        </g>
    </g>
</svg>