<?xml version="1.0" encoding="UTF-8"?>
<svg width="64" height="64" version="1.1" viewBox="0 0 64 64" xmlns="http://www.w3.org/2000/svg" xmlns:xlink="http://www.w3.org/1999/xlink">
    <!--Generated by IJSVG (https://github.com/iconjar/IJSVG)-->
    <g transform="scale(0.633663)">
        <path fill="#000" d="M88.37,45.67h-1.44v-2.78c0,-21.44 -16.57,-38.89 -36.93,-38.89v0l-1.78687e-06,2.27543e-09c-9.92959,0.0126447 -19.4079,4.14877 -26.17,11.42l-9.004e-07,9.53472e-07c-7.007,7.42001 -10.8857,17.2545 -10.83,27.46v2.79h-0.93c-4.26,0 -7.74,4.33 -7.74,9.64l-2.42984e-07,1.8766e-05c-0.0311541,2.40623 0.727616,4.7563 2.16001,6.69l-3.37936e-07,-4.85596e-07c1.27928,1.83825 3.3609,2.95341 5.6,3h1.35c2.69,18.68 18,33 36.53,33v0l-1.52858e-06,2.37506e-09c9.92611,-0.0154225 19.4003,-4.15132 26.16,-11.42l6.38347e-07,-6.75088e-07c5.61734,-5.94067 9.2453,-13.4832 10.38,-21.58h1.85c4.26,0 7.74,-4.33 7.74,-9.64c0,-5.31 -3.47,-9.69 -7.73,-9.69Zm-38.37,-38.67c12.11,0 22.74,6.74 28.75,16.84l-1.08052e-06,3.12384e-07c-7.67054,2.21759 -15.8452,1.95864 -23.36,-0.740001l2.36052e-06,7.98931e-07c-7.34992,-2.48763 -13.7657,-7.15901 -18.39,-13.39l-4.58621e-07,2.00728e-07c4.09886,-1.79398 8.52574,-2.71681 13,-2.71Zm-37.91,55l-4.25342e-08,-1.88695e-09c-1.29744,-0.0575582 -2.49134,-0.724956 -3.22,-1.8l-1.89319e-07,-2.61315e-07c-1.0204,-1.40846 -1.55401,-3.11109 -1.52,-4.85c0,-3.6 2.17,-6.65 4.74,-6.65h0.91v6.17v0v4.27c0,1 0,1.91 0.11,2.85Zm61.91,22.52l-5.24531e-07,5.64374e-07c-6.20008,6.67102 -14.8927,10.4668 -24,10.48v0c-18.75,1.52806e-09 -34,-16.1 -34,-35.89v-11.94v0v-4.29l-6.36611e-07,-0.000106249c-0.0565331,-9.43751 3.52481,-18.5341 10.0001,-25.4l-3.70067e-06,3.91226e-06c2.41419,-2.55222 5.2069,-4.71758 8.28,-6.42l-6.52314e-09,-9.06523e-09c4.98947,6.93389 12.0202,12.1361 20.1099,14.8801l4.25924e-07,1.49362e-07c4.49974,1.57796 9.23163,2.39252 14,2.41l-7.93166e-07,-2.38343e-09c3.99028,0.0119906 7.958,-0.598686 11.76,-1.81l-9.90677e-07,-2.04195e-06c2.47205,5.09529 3.75106,10.6867 3.74,16.35v11.94v0v4.28l-1.36434e-07,-1.44675e-05c0.0888908,9.42579 -3.45243,18.5244 -9.88997,25.41Zm14.36,-22.52h-1.54c0.06,-0.94 0.11,-1.88 0.11,-2.83v-10.5h1.44c2.57,0 4.74,3 4.73,6.64c-0.01,3.64 -2.17,6.69 -4.74,6.69Z"></path>
        <path fill="#000" d="M63.4,73.68l-5.89862e-08,-2.63734e-08c-0.756276,-0.33814 -1.64347,0.000825835 -1.98161,0.757101c-0.00635048,0.0142033 -0.0124796,0.0285046 -0.0183851,0.0428986l2.24041e-07,-5.27721e-07c-2.5899,6.10042 -9.63479,8.94625 -15.7352,6.35635c-2.69853,-1.14565 -4.88432,-3.23951 -6.14479,-5.88635l8.88378e-08,1.86628e-07c-0.356224,-0.748346 -1.25165,-1.06622 -2,-0.71c-0.748346,0.356224 -1.06622,1.25165 -0.71,2c0,0 0,0 0,0l-6.45083e-07,-1.3543e-06c3.56249,7.47916 12.5135,10.6542 19.9927,7.09175c3.30846,-1.57589 5.92557,-4.30841 7.35733,-7.68175l2.94895e-09,-6.7371e-09c0.330025,-0.753965 -0.00910971,-1.63304 -0.76,-1.97Z"></path>
        <path fill="#000" d="M50.21,68.64h0.42c2.72,0 5.35,-1.39 7.81,-4.14l5.37801e-08,-6.70276e-08c0.518443,-0.646149 0.414916,-1.59024 -0.231233,-2.10868c-0.596533,-0.478633 -1.45765,-0.43181 -1.99877,0.108681c-1.95,2.17 -3.9,3.23 -5.82,3.14c-3,-0.14 -5.09,-3 -5.13,-3l2.61765e-08,3.33147e-08c-0.511828,-0.651402 -1.45481,-0.764549 -2.10621,-0.252721c-0.619854,0.487039 -0.756949,1.37077 -0.313787,2.02272c0.110001,0.149999 2.95,4.01 7.37,4.23Z"></path>
        <path fill="#000" d="M73.64,47.41c-1.95,2.17 -3.91,3.23 -5.82,3.14c-3,-0.14 -5.09,-3 -5.13,-3l2.61765e-08,3.33147e-08c-0.511828,-0.651402 -1.45481,-0.764549 -2.10621,-0.252721c-0.619854,0.487039 -0.756949,1.37077 -0.313787,2.02272c0.12,0.16 3,4 7.38,4.25h0.42c2.72,0 5.35,-1.39 7.81,-4.14l5.37802e-08,-6.70277e-08c0.518443,-0.646149 0.414916,-1.59024 -0.231233,-2.10868c-0.596533,-0.478633 -1.45765,-0.43181 -1.99877,0.108681Z"></path>
        <path fill="#000" d="M39.85,49.41l5.37801e-08,-6.70276e-08c0.518443,-0.646149 0.414916,-1.59024 -0.231233,-2.10868c-0.596533,-0.478633 -1.45765,-0.43181 -1.99877,0.108681c-1.95,2.17 -3.9,3.23 -5.82,3.14c-3,-0.14 -5.09,-3 -5.13,-3l2.61765e-08,3.33147e-08c-0.511828,-0.651402 -1.45481,-0.764549 -2.10621,-0.252721c-0.619854,0.487039 -0.756949,1.37077 -0.313787,2.02272c0.12,0.16 3,4 7.38,4.25h0.370001c2.76,-0.0200006 5.38,-1.41 7.85,-4.16Z"></path>
    </g>
</svg>