<?xml version="1.0" encoding="UTF-8"?>
<svg width="64" height="64" version="1.1" viewBox="0 0 64 64" xmlns="http://www.w3.org/2000/svg" xmlns:xlink="http://www.w3.org/1999/xlink">
    <!--Generated by IJSVG (https://github.com/iconjar/IJSVG)-->
    <path d="M91.914,35.724c-11.804,-10.807 -22.731,-17.214 -32.477,-19.046c-2.396,-0.452 -4.206,1.814 -5.961,4.003c-1.294,1.614 -2.905,3.623 -4.183,3.623c-1.655,0 -3.13,-1.878 -4.556,-3.694c-1.657,-2.111 -3.37,-4.29 -5.855,-3.791c-12.812,2.601 -30.079,18.713 -30.808,19.397c-0.312,0.293 -0.484,0.707 -0.473,1.135c0.012,0.428 0.207,0.831 0.535,1.107c1.275,1.07 2.959,3.287 4.909,5.854c3.69,4.856 8.745,11.508 15.569,16.456c0,0 0,0 0,0c3.481,15.427 10.756,24.605 20.443,24.605c4.294,0 8.383,-1.823 11.825,-5.271c4.268,-4.276 7.45,-10.884 9.411,-19.333c8.068,-5.614 14.127,-13.394 18.155,-18.573c1.415,-1.819 2.637,-3.391 3.535,-4.327c0.279,-0.292 0.43,-0.683 0.416,-1.087c-0.011,-0.404 -0.187,-0.785 -0.485,-1.058Zm-52.436,-15.964c0.656,-0.136 1.959,1.505 2.9,2.704c1.694,2.157 3.802,4.841 6.916,4.841c2.718,0 4.739,-2.521 6.522,-4.746c0.854,-1.065 2.421,-3.062 3.066,-2.932c8.316,1.562 18.033,7.031 28.253,15.865h-73.714c5.604,-4.781 17.244,-13.943 26.057,-15.732Zm-24.043,22.736c-1.162,-1.529 -2.19,-2.88 -3.133,-4.005h14.042c0.025,6.475 0.506,12.423 1.391,17.757c-5.175,-4.391 -9.229,-9.71 -12.3,-13.752Zm43.325,35.487c-2.908,2.913 -6.172,4.391 -9.702,4.391c-11.899,0 -19.612,-17.206 -19.715,-43.882h18.521l0.097,27.819c0.003,0.827 0.674,1.495 1.5,1.495c0.001,0 0.003,0 0.005,0c0.828,-0.003 1.498,-0.677 1.495,-1.505l-0.097,-27.81h18.719c-0.038,18.51 -3.872,32.527 -10.823,39.492Zm12.399,-21.593c0.923,-5.381 1.41,-11.375 1.424,-17.898h14.955c-0.451,0.57 -0.935,1.192 -1.457,1.863c-3.467,4.457 -8.479,10.9 -14.922,16.035Z" transform="scale(0.637749)" fill="#000"></path>
</svg>