<?xml version="1.0" encoding="UTF-8"?>
<svg width="64" height="64" version="1.1" viewBox="0 0 64 64" xmlns="http://www.w3.org/2000/svg" xmlns:xlink="http://www.w3.org/1999/xlink">
    <!--Generated by IJSVG (https://github.com/iconjar/IJSVG)-->
    <g transform="scale(0.637749)">
        <path fill="#000" d="M95.182,60.183c0,-6.99 -5.597,-12.685 -12.541,-12.867c-5.095,-12.923 -17.616,-22.128 -32.282,-22.324c1.183,-1.464 2.328,-3.318 2.375,-5.07c0.095,-3.763 -2.262,-5.137 -3.983,-6.14c-1.561,-0.91 -2.311,-1.414 -2.314,-2.915c-0.006,-2.961 2.831,-3.235 3.391,-3.259c0.828,-0.025 1.479,-0.717 1.454,-1.545c-0.026,-0.828 -0.711,-1.468 -1.545,-1.454c-2.183,0.067 -6.31,1.462 -6.299,6.266c0.009,3.287 2.202,4.565 3.803,5.499c1.719,1.002 2.542,1.568 2.495,3.472c-0.038,1.43 -2.117,3.919 -3.681,5.347c-13.207,1.435 -24.237,10.204 -28.937,22.138c-6.832,0.313 -12.298,5.95 -12.298,12.854c0,6.911 5.467,12.552 12.299,12.865c5.148,13.068 17.888,22.344 32.763,22.344c14.87,0 27.606,-9.271 32.758,-22.332c6.944,-0.183 12.542,-5.883 12.542,-12.879Zm-87.363,0c-2.66454e-15,-4.886 3.569,-8.944 8.236,-9.734c-0.892,3.095 -1.38,6.359 -1.38,9.737c0,3.38 0.489,6.646 1.382,9.742c-4.668,-0.791 -8.238,-4.854 -8.238,-9.745Zm42.062,32.209c-17.758,0 -32.206,-14.447 -32.206,-32.206c0,-17.759 14.448,-32.207 32.206,-32.207c17.759,0 32.206,14.448 32.206,32.207c0,17.759 -14.447,32.206 -32.206,32.206Zm33.813,-22.425c0.901,-3.108 1.393,-6.387 1.393,-9.781c0,-3.393 -0.492,-6.671 -1.392,-9.777c4.789,0.681 8.486,4.799 8.486,9.774c0.001,4.981 -3.698,9.103 -8.487,9.784Z"></path>
        <path fill="#000" d="M40.655,56.378c0,0.828 0.671,1.5 1.5,1.5c0.829,0 1.5,-0.672 1.5,-1.5c0,-3.843 -3.127,-6.97 -6.972,-6.97c-3.845,0 -6.973,3.127 -6.973,6.97c0,0.828 0.671,1.5 1.5,1.5c0.829,0 1.5,-0.672 1.5,-1.5c0,-2.188 1.782,-3.97 3.973,-3.97c2.19,0 3.972,1.782 3.972,3.97Z"></path>
        <path fill="#000" d="M62.711,49.408c-3.845,0 -6.973,3.127 -6.973,6.97c0,0.828 0.672,1.5 1.5,1.5c0.828,0 1.5,-0.672 1.5,-1.5c0,-2.188 1.782,-3.97 3.973,-3.97c2.191,0 3.972,1.781 3.972,3.97c0,0.828 0.672,1.5 1.5,1.5c0.828,0 1.5,-0.672 1.5,-1.5c1.42109e-14,-3.843 -3.128,-6.97 -6.972,-6.97Z"></path>
        <path fill="#000" d="M63.899,66.259c-0.828,0 -1.5,0.672 -1.5,1.5c0,6.903 -5.615,12.52 -12.518,12.52c-6.902,0 -12.517,-5.616 -12.517,-12.52c0,-0.828 -0.671,-1.5 -1.5,-1.5c-0.829,0 -1.5,0.672 -1.5,1.5c0,8.558 6.961,15.52 15.517,15.52c8.557,0 15.518,-6.962 15.518,-15.52c0,-0.828 -0.671,-1.5 -1.5,-1.5Z"></path>
    </g>
</svg>